<svg width="500" height="500" viewBox="0 0 500 500" fill="none" xmlns="http://www.w3.org/2000/svg">
<path d="M500 250C500 388.071 388.071 500 250 500C111.929 500 0 388.071 0 250C0 111.929 111.929 0 250 0C388.071 0 500 111.929 500 250ZM44.2057 250C44.2057 363.657 136.343 455.794 250 455.794C363.657 455.794 455.794 363.657 455.794 250C455.794 136.343 363.657 44.2057 250 44.2057C136.343 44.2057 44.2057 136.343 44.2057 250Z" fill="#B2E4DB"/>
<path d="M192.536 360C186.365 360 181.5 358.339 177.94 355.016C174.617 351.456 172.956 346.709 172.956 340.776C172.956 334.605 174.617 329.977 177.94 326.892C181.5 323.807 186.365 322.264 192.536 322.264H232.408V147.468H254.48L202.148 179.152C197.639 181.763 193.367 182.831 189.332 182.356C185.535 181.644 182.212 179.983 179.364 177.372C176.753 174.524 174.973 171.201 174.024 167.404C173.075 163.607 173.312 159.809 174.736 156.012C176.397 151.977 179.483 148.655 183.992 146.044L233.12 116.496C237.867 113.648 242.613 111.275 247.36 109.376C252.107 107.24 256.497 106.172 260.532 106.172C265.516 106.172 269.669 107.596 272.992 110.444C276.315 113.055 277.976 117.445 277.976 123.616V322.264H314.288C320.459 322.264 325.205 323.807 328.528 326.892C332.088 329.977 333.868 334.605 333.868 340.776C333.868 346.947 332.088 351.693 328.528 355.016C325.205 358.339 320.459 360 314.288 360H192.536Z" fill="#B2E4DB"/>
</svg>
