<svg width="611" height="550" viewBox="0 0 611 550" fill="none" xmlns="http://www.w3.org/2000/svg">
<path d="M0 0H611V550H0V0Z" fill="white"/>
<path d="M36.696 56V50.36H40.184V50.912H37.352V52.88H40.024V53.432H37.352V56H36.696Z" fill="black"/>
<path d="M42.4584 56.072C42.0797 56.072 41.7517 55.9893 41.4744 55.824C41.197 55.6587 40.981 55.4267 40.8264 55.128C40.677 54.824 40.6024 54.4667 40.6024 54.056C40.6024 53.6453 40.677 53.2907 40.8264 52.992C40.981 52.688 41.197 52.4533 41.4744 52.288C41.7517 52.1227 42.0797 52.04 42.4584 52.04C42.8317 52.04 43.157 52.1227 43.4344 52.288C43.717 52.4533 43.933 52.688 44.0824 52.992C44.237 53.2907 44.3144 53.6453 44.3144 54.056C44.3144 54.4667 44.237 54.824 44.0824 55.128C43.933 55.4267 43.717 55.6587 43.4344 55.824C43.157 55.9893 42.8317 56.072 42.4584 56.072ZM42.4584 55.552C42.821 55.552 43.1117 55.424 43.3304 55.168C43.549 54.9067 43.6584 54.536 43.6584 54.056C43.6584 53.5707 43.549 53.2 43.3304 52.944C43.1117 52.688 42.821 52.56 42.4584 52.56C42.0904 52.56 41.797 52.688 41.5784 52.944C41.365 53.2 41.2584 53.5707 41.2584 54.056C41.2584 54.536 41.365 54.9067 41.5784 55.168C41.797 55.424 42.0904 55.552 42.4584 55.552Z" fill="black"/>
<path d="M45.2877 56V52.112H45.9197V52.808C46.1277 52.3387 46.5544 52.08 47.1997 52.032L47.4317 52.008L47.4797 52.568L47.0717 52.616C46.7037 52.648 46.4237 52.7653 46.2317 52.968C46.0397 53.1653 45.9437 53.4373 45.9437 53.784V56H45.2877Z" fill="black"/>
<path d="M48.1709 56V52.112H48.8029V52.768C48.9202 52.5333 49.0829 52.3547 49.2909 52.232C49.4989 52.104 49.7415 52.04 50.0189 52.04C50.6269 52.04 51.0162 52.304 51.1869 52.832C51.3042 52.5867 51.4775 52.3947 51.7069 52.256C51.9362 52.112 52.2002 52.04 52.4989 52.04C53.3629 52.04 53.7949 52.552 53.7949 53.576V56H53.1469V53.608C53.1469 53.2507 53.0829 52.9893 52.9549 52.824C52.8322 52.6533 52.6269 52.568 52.3389 52.568C52.0242 52.568 51.7735 52.68 51.5869 52.904C51.4002 53.128 51.3069 53.4267 51.3069 53.8V56H50.6589V53.608C50.6589 53.2507 50.5949 52.9893 50.4669 52.824C50.3442 52.6533 50.1389 52.568 49.8509 52.568C49.5309 52.568 49.2775 52.68 49.0909 52.904C48.9095 53.128 48.8189 53.4267 48.8189 53.8V56H48.1709Z" fill="black"/>
<path d="M64.08 57.264C62.96 57.264 61.848 57.104 60.744 56.784C59.656 56.448 58.792 56.008 58.152 55.464L59.496 52.176C60.92 53.152 62.416 53.64 63.984 53.64C64.8 53.64 65.432 53.464 65.88 53.112C66.328 52.76 66.552 52.264 66.552 51.624C66.552 51 66.336 50.504 65.904 50.136C65.472 49.752 64.896 49.56 64.176 49.56C63.136 49.56 62.208 49.928 61.392 50.664H58.632V40.08H69.672V43.656H62.784V46.656C63.52 46.256 64.368 46.056 65.328 46.056C66.4 46.056 67.344 46.288 68.16 46.752C68.976 47.2 69.608 47.832 70.056 48.648C70.52 49.464 70.752 50.416 70.752 51.504C70.752 52.656 70.48 53.672 69.936 54.552C69.392 55.416 68.624 56.088 67.632 56.568C66.64 57.032 65.456 57.264 64.08 57.264Z" fill="black"/>
<path d="M79.2626 57.264C77.0386 57.264 75.3186 56.52 74.1026 55.032C72.9026 53.544 72.3026 51.432 72.3026 48.696C72.3026 46.84 72.6066 45.248 73.2146 43.92C73.8386 42.592 74.7346 41.576 75.9026 40.872C77.0706 40.168 78.4626 39.816 80.0786 39.816C81.0066 39.816 81.9186 39.968 82.8146 40.272C83.7106 40.56 84.5026 40.984 85.1906 41.544L83.8466 44.784C83.2546 44.336 82.6306 44 81.9746 43.776C81.3346 43.552 80.6866 43.44 80.0306 43.44C77.6306 43.44 76.4306 44.928 76.4306 47.904V48.072C76.7666 47.384 77.2626 46.848 77.9186 46.464C78.5906 46.08 79.3506 45.888 80.1986 45.888C81.1266 45.888 81.9586 46.128 82.6946 46.608C83.4466 47.072 84.0386 47.72 84.4706 48.552C84.9026 49.384 85.1186 50.328 85.1186 51.384C85.1186 52.536 84.8706 53.552 84.3746 54.432C83.8786 55.312 83.1906 56.008 82.3106 56.52C81.4306 57.016 80.4146 57.264 79.2626 57.264ZM79.0226 53.904C79.6466 53.904 80.1426 53.696 80.5106 53.28C80.8946 52.848 81.0866 52.28 81.0866 51.576C81.0866 50.872 80.8946 50.304 80.5106 49.872C80.1426 49.44 79.6466 49.224 79.0226 49.224C78.4146 49.224 77.9186 49.44 77.5346 49.872C77.1506 50.304 76.9586 50.872 76.9586 51.576C76.9586 52.28 77.1506 52.848 77.5346 53.28C77.9186 53.696 78.4146 53.904 79.0226 53.904Z" fill="black"/>
<path d="M91.4932 57.264C90.5652 57.264 89.6532 57.12 88.7572 56.832C87.8772 56.528 87.0852 56.088 86.3812 55.512L87.7493 52.296C88.9013 53.192 90.1653 53.64 91.5413 53.64C93.9573 53.64 95.1653 52.152 95.1653 49.176V48.984C94.8133 49.688 94.3012 50.232 93.6292 50.616C92.9732 51 92.2213 51.192 91.3733 51.192C90.4453 51.192 89.6052 50.96 88.8532 50.496C88.1172 50.016 87.5332 49.36 87.1012 48.528C86.6692 47.696 86.4532 46.752 86.4532 45.696C86.4532 44.544 86.7013 43.528 87.1973 42.648C87.7093 41.768 88.4052 41.08 89.2852 40.584C90.1652 40.072 91.1732 39.816 92.3092 39.816C94.5332 39.816 96.2453 40.56 97.4453 42.048C98.6613 43.536 99.2692 45.648 99.2692 48.384C99.2692 50.24 98.9573 51.832 98.3333 53.16C97.7253 54.488 96.8373 55.504 95.6693 56.208C94.5173 56.912 93.1252 57.264 91.4932 57.264ZM92.5492 47.832C93.1732 47.832 93.6692 47.624 94.0372 47.208C94.4212 46.776 94.6133 46.208 94.6133 45.504C94.6133 44.8 94.4212 44.24 94.0372 43.824C93.6692 43.392 93.1732 43.176 92.5492 43.176C91.9252 43.176 91.4212 43.392 91.0372 43.824C90.6692 44.24 90.4853 44.8 90.4853 45.504C90.4853 46.208 90.6692 46.776 91.0372 47.208C91.4212 47.624 91.9252 47.832 92.5492 47.832Z" fill="black"/>
<path d="M107.252 57.264C106.132 57.264 105.02 57.104 103.916 56.784C102.828 56.448 101.964 56.008 101.324 55.464L102.668 52.176C104.092 53.152 105.588 53.64 107.156 53.64C107.972 53.64 108.604 53.464 109.052 53.112C109.5 52.76 109.724 52.264 109.724 51.624C109.724 51 109.508 50.504 109.076 50.136C108.644 49.752 108.068 49.56 107.348 49.56C106.308 49.56 105.38 49.928 104.564 50.664H101.804V40.08H112.844V43.656H105.956V46.656C106.692 46.256 107.54 46.056 108.5 46.056C109.572 46.056 110.516 46.288 111.332 46.752C112.148 47.2 112.78 47.832 113.228 48.648C113.692 49.464 113.924 50.416 113.924 51.504C113.924 52.656 113.652 53.672 113.108 54.552C112.564 55.416 111.796 56.088 110.804 56.568C109.812 57.032 108.628 57.264 107.252 57.264Z" fill="black"/>
<path d="M229.144 44.796H231.497C231.939 44.796 232.368 44.822 232.81 44.874C233.252 44.926 233.642 45.043 233.993 45.212C234.331 45.394 234.617 45.641 234.838 45.979C235.046 46.317 235.163 46.759 235.163 47.331C235.163 48.007 234.955 48.553 234.552 48.969C234.136 49.385 233.577 49.658 232.862 49.762L235.475 54H234.136L231.64 49.866H230.236V54H229.144V44.796ZM230.236 48.852H231.211C231.51 48.852 231.822 48.852 232.147 48.826C232.472 48.813 232.771 48.761 233.044 48.657C233.317 48.566 233.538 48.423 233.72 48.215C233.902 48.007 233.993 47.721 233.993 47.331C233.993 47.006 233.928 46.746 233.798 46.538C233.668 46.343 233.486 46.187 233.278 46.083C233.07 45.979 232.823 45.901 232.563 45.862C232.303 45.836 232.03 45.81 231.77 45.81H230.236V48.852Z" fill="black"/>
<path d="M242.343 52.895C241.979 53.363 241.576 53.701 241.147 53.883C240.705 54.065 240.211 54.156 239.639 54.156C239.158 54.156 238.729 54.078 238.352 53.909C237.962 53.74 237.637 53.506 237.377 53.22C237.117 52.934 236.909 52.596 236.766 52.206C236.623 51.816 236.558 51.4 236.558 50.958C236.558 50.49 236.636 50.061 236.792 49.671C236.948 49.281 237.156 48.943 237.442 48.657C237.715 48.371 238.04 48.15 238.43 47.994C238.807 47.838 239.223 47.76 239.678 47.76C240.094 47.76 240.484 47.838 240.848 47.981C241.199 48.124 241.498 48.332 241.758 48.605C242.018 48.878 242.213 49.216 242.356 49.606C242.486 49.996 242.564 50.451 242.564 50.945V51.27H237.65C237.663 51.53 237.728 51.79 237.832 52.024C237.936 52.258 238.079 52.466 238.261 52.648C238.43 52.83 238.638 52.96 238.872 53.064C239.106 53.168 239.353 53.22 239.639 53.22C240.081 53.22 240.445 53.142 240.757 52.986C241.056 52.83 241.329 52.609 241.576 52.297L242.343 52.895ZM241.472 50.412C241.446 49.892 241.277 49.476 240.965 49.164C240.64 48.852 240.198 48.696 239.639 48.696C239.067 48.696 238.612 48.852 238.274 49.164C237.923 49.476 237.715 49.892 237.65 50.412H241.472Z" fill="black"/>
<path d="M244.263 52.401C244.458 52.661 244.679 52.856 244.913 52.999C245.147 53.155 245.459 53.22 245.823 53.22C245.979 53.22 246.135 53.207 246.291 53.168C246.447 53.142 246.603 53.077 246.733 52.999C246.863 52.921 246.967 52.83 247.045 52.713C247.123 52.596 247.162 52.453 247.162 52.284C247.162 52.128 247.123 51.985 247.045 51.881C246.967 51.777 246.876 51.699 246.759 51.621C246.629 51.543 246.499 51.491 246.343 51.439C246.187 51.4 246.018 51.361 245.862 51.322C245.576 51.27 245.303 51.192 245.043 51.114C244.783 51.036 244.549 50.945 244.354 50.815C244.159 50.685 244.003 50.529 243.886 50.321C243.769 50.126 243.717 49.866 243.717 49.554C243.717 49.268 243.782 49.008 243.912 48.774C244.042 48.553 244.211 48.371 244.432 48.215C244.64 48.072 244.887 47.955 245.16 47.877C245.42 47.799 245.706 47.76 245.992 47.76C246.421 47.76 246.824 47.851 247.188 48.02C247.552 48.202 247.851 48.475 248.059 48.865L247.214 49.424C247.084 49.216 246.902 49.034 246.694 48.904C246.486 48.774 246.226 48.696 245.927 48.696C245.784 48.696 245.641 48.722 245.498 48.748C245.355 48.787 245.225 48.839 245.121 48.904C245.004 48.982 244.913 49.073 244.835 49.177C244.757 49.281 244.731 49.411 244.731 49.541C244.731 49.671 244.77 49.788 244.848 49.879C244.926 49.97 245.043 50.048 245.186 50.113C245.329 50.191 245.498 50.243 245.68 50.295C245.862 50.347 246.057 50.399 246.265 50.425C246.525 50.477 246.785 50.555 247.032 50.633C247.266 50.711 247.487 50.828 247.669 50.958C247.851 51.101 247.994 51.27 248.098 51.478C248.202 51.686 248.254 51.946 248.254 52.245C248.254 52.596 248.176 52.895 248.046 53.129C247.903 53.376 247.721 53.571 247.487 53.727C247.253 53.883 246.993 53.987 246.707 54.052C246.421 54.13 246.122 54.156 245.823 54.156C245.303 54.156 244.848 54.078 244.471 53.922C244.094 53.766 243.756 53.467 243.457 53.025L244.263 52.401Z" fill="black"/>
<path d="M249.759 47.916H250.773V54H249.759V47.916ZM249.525 45.537C249.525 45.342 249.59 45.173 249.733 45.017C249.876 44.874 250.058 44.796 250.266 44.796C250.474 44.796 250.643 44.874 250.786 45.017C250.929 45.173 251.007 45.342 251.007 45.537C251.007 45.758 250.929 45.94 250.799 46.07C250.656 46.213 250.474 46.278 250.266 46.278C250.045 46.278 249.863 46.213 249.733 46.07C249.59 45.94 249.525 45.758 249.525 45.537Z" fill="black"/>
<path d="M257.848 52.921H257.822C257.627 53.272 257.328 53.571 256.912 53.805C256.496 54.039 256.028 54.156 255.482 54.156C255.053 54.156 254.65 54.078 254.286 53.922C253.909 53.766 253.584 53.532 253.311 53.246C253.038 52.96 252.83 52.622 252.674 52.232C252.518 51.842 252.44 51.426 252.44 50.958C252.44 50.503 252.518 50.074 252.674 49.684C252.83 49.294 253.038 48.956 253.324 48.67C253.597 48.384 253.935 48.163 254.325 48.007C254.715 47.851 255.157 47.76 255.638 47.76C256.08 47.76 256.483 47.851 256.847 48.033C257.211 48.215 257.536 48.475 257.822 48.8H257.848V44.172H258.862V54H257.848V52.921ZM257.848 50.958C257.848 50.646 257.796 50.347 257.692 50.074C257.588 49.801 257.445 49.567 257.263 49.359C257.068 49.151 256.834 48.995 256.574 48.878C256.314 48.761 256.015 48.696 255.69 48.696C255.352 48.696 255.053 48.761 254.793 48.878C254.533 48.995 254.299 49.151 254.117 49.359C253.922 49.567 253.779 49.801 253.675 50.074C253.571 50.347 253.532 50.646 253.532 50.958C253.532 51.283 253.571 51.582 253.675 51.855C253.779 52.128 253.922 52.362 254.117 52.57C254.299 52.778 254.533 52.934 254.793 53.051C255.053 53.168 255.352 53.22 255.69 53.22C256.015 53.22 256.314 53.168 256.574 53.051C256.834 52.934 257.068 52.778 257.263 52.57C257.445 52.362 257.588 52.128 257.692 51.855C257.796 51.582 257.848 51.283 257.848 50.958Z" fill="black"/>
<path d="M266.172 52.895C265.808 53.363 265.405 53.701 264.976 53.883C264.534 54.065 264.04 54.156 263.468 54.156C262.987 54.156 262.558 54.078 262.181 53.909C261.791 53.74 261.466 53.506 261.206 53.22C260.946 52.934 260.738 52.596 260.595 52.206C260.452 51.816 260.387 51.4 260.387 50.958C260.387 50.49 260.465 50.061 260.621 49.671C260.777 49.281 260.985 48.943 261.271 48.657C261.544 48.371 261.869 48.15 262.259 47.994C262.636 47.838 263.052 47.76 263.507 47.76C263.923 47.76 264.313 47.838 264.677 47.981C265.028 48.124 265.327 48.332 265.587 48.605C265.847 48.878 266.042 49.216 266.185 49.606C266.315 49.996 266.393 50.451 266.393 50.945V51.27H261.479C261.492 51.53 261.557 51.79 261.661 52.024C261.765 52.258 261.908 52.466 262.09 52.648C262.259 52.83 262.467 52.96 262.701 53.064C262.935 53.168 263.182 53.22 263.468 53.22C263.91 53.22 264.274 53.142 264.586 52.986C264.885 52.83 265.158 52.609 265.405 52.297L266.172 52.895ZM265.301 50.412C265.275 49.892 265.106 49.476 264.794 49.164C264.469 48.852 264.027 48.696 263.468 48.696C262.896 48.696 262.441 48.852 262.103 49.164C261.752 49.476 261.544 49.892 261.479 50.412H265.301Z" fill="black"/>
<path d="M267.962 49.359C267.962 49.086 267.949 48.826 267.936 48.579C267.91 48.345 267.91 48.124 267.91 47.916H268.872C268.872 48.085 268.872 48.254 268.885 48.41C268.885 48.579 268.898 48.748 268.898 48.917H268.924C268.989 48.774 269.08 48.631 269.21 48.488C269.34 48.358 269.483 48.228 269.665 48.124C269.834 48.02 270.029 47.929 270.25 47.864C270.458 47.799 270.692 47.76 270.952 47.76C271.342 47.76 271.693 47.825 271.979 47.942C272.265 48.072 272.512 48.241 272.707 48.449C272.889 48.67 273.032 48.93 273.123 49.242C273.214 49.554 273.266 49.879 273.266 50.243V54H272.252V50.347C272.252 49.84 272.135 49.437 271.914 49.138C271.68 48.852 271.329 48.696 270.861 48.696C270.523 48.696 270.237 48.761 270.003 48.865C269.769 48.982 269.574 49.138 269.418 49.346C269.262 49.554 269.158 49.801 269.08 50.087C269.002 50.373 268.976 50.698 268.976 51.036V54H267.962V49.359Z" fill="black"/>
<path d="M278.514 48.774H276.72V51.816C276.72 52.024 276.72 52.206 276.733 52.375C276.733 52.544 276.772 52.687 276.837 52.817C276.889 52.947 276.98 53.038 277.11 53.116C277.227 53.194 277.396 53.22 277.63 53.22C277.773 53.22 277.929 53.207 278.085 53.168C278.241 53.142 278.384 53.09 278.527 53.012L278.566 53.935C278.384 54.013 278.189 54.078 277.981 54.104C277.773 54.143 277.565 54.156 277.383 54.156C277.019 54.156 276.72 54.117 276.512 54.013C276.291 53.922 276.122 53.792 276.005 53.61C275.875 53.441 275.797 53.233 275.758 52.973C275.719 52.713 275.706 52.427 275.706 52.115V48.774H274.38V47.916H275.706V46.187H276.72V47.916H278.514V48.774Z" fill="black"/>
<path d="M279.86 47.916H280.874V54H279.86V47.916ZM279.626 45.537C279.626 45.342 279.691 45.173 279.834 45.017C279.977 44.874 280.159 44.796 280.367 44.796C280.575 44.796 280.744 44.874 280.887 45.017C281.03 45.173 281.108 45.342 281.108 45.537C281.108 45.758 281.03 45.94 280.9 46.07C280.757 46.213 280.575 46.278 280.367 46.278C280.146 46.278 279.964 46.213 279.834 46.07C279.691 45.94 279.626 45.758 279.626 45.537Z" fill="black"/>
<path d="M282.814 48.696C283.126 48.384 283.49 48.15 283.919 47.994C284.348 47.838 284.79 47.76 285.232 47.76C286.129 47.76 286.779 47.981 287.182 48.397C287.572 48.826 287.78 49.476 287.78 50.334V52.947C287.78 53.129 287.78 53.311 287.806 53.493C287.819 53.675 287.845 53.844 287.871 54H286.896C286.857 53.87 286.831 53.714 286.831 53.545C286.831 53.376 286.831 53.22 286.831 53.09H286.805C286.597 53.402 286.337 53.662 285.999 53.857C285.661 54.065 285.271 54.156 284.803 54.156C284.491 54.156 284.192 54.117 283.919 54.039C283.646 53.961 283.412 53.857 283.204 53.701C282.996 53.545 282.84 53.363 282.723 53.129C282.593 52.908 282.541 52.648 282.541 52.349C282.541 51.855 282.671 51.452 282.931 51.166C283.191 50.88 283.503 50.672 283.893 50.529C284.283 50.399 284.699 50.308 285.141 50.269C285.583 50.243 285.999 50.217 286.376 50.217H286.766V50.035C286.766 49.593 286.623 49.268 286.363 49.034C286.103 48.813 285.726 48.696 285.258 48.696C284.92 48.696 284.595 48.761 284.283 48.865C283.971 48.969 283.685 49.138 283.451 49.359L282.814 48.696ZM285.752 51.075C285.102 51.075 284.582 51.166 284.205 51.348C283.815 51.53 283.633 51.829 283.633 52.245C283.633 52.635 283.75 52.908 284.01 53.064C284.27 53.22 284.582 53.298 284.972 53.298C285.258 53.298 285.518 53.259 285.739 53.155C285.96 53.051 286.142 52.921 286.298 52.752C286.441 52.596 286.558 52.401 286.636 52.18C286.714 51.959 286.753 51.725 286.766 51.465V51.075H285.752Z" fill="black"/>
<path d="M289.724 44.172H290.738V54H289.724V44.172Z" fill="black"/>
<path d="M296.556 44.796H302.341V45.81H297.648V48.696H302.029V49.71H297.648V52.986H302.575V54H296.556V44.796Z" fill="black"/>
<path d="M304.08 49.359C304.08 49.086 304.067 48.826 304.054 48.579C304.028 48.345 304.028 48.124 304.028 47.916H304.99C304.99 48.085 304.99 48.254 305.003 48.41C305.003 48.579 305.016 48.748 305.016 48.917H305.042C305.107 48.774 305.198 48.631 305.328 48.488C305.458 48.358 305.601 48.228 305.783 48.124C305.952 48.02 306.147 47.929 306.368 47.864C306.576 47.799 306.81 47.76 307.07 47.76C307.46 47.76 307.811 47.825 308.097 47.942C308.383 48.072 308.63 48.241 308.825 48.449C309.007 48.67 309.15 48.93 309.241 49.242C309.332 49.554 309.384 49.879 309.384 50.243V54H308.37V50.347C308.37 49.84 308.253 49.437 308.032 49.138C307.798 48.852 307.447 48.696 306.979 48.696C306.641 48.696 306.355 48.761 306.121 48.865C305.887 48.982 305.692 49.138 305.536 49.346C305.38 49.554 305.276 49.801 305.198 50.087C305.12 50.373 305.094 50.698 305.094 51.036V54H304.08V49.359Z" fill="black"/>
<path d="M316.738 52.895C316.374 53.363 315.971 53.701 315.542 53.883C315.1 54.065 314.606 54.156 314.034 54.156C313.553 54.156 313.124 54.078 312.747 53.909C312.357 53.74 312.032 53.506 311.772 53.22C311.512 52.934 311.304 52.596 311.161 52.206C311.018 51.816 310.953 51.4 310.953 50.958C310.953 50.49 311.031 50.061 311.187 49.671C311.343 49.281 311.551 48.943 311.837 48.657C312.11 48.371 312.435 48.15 312.825 47.994C313.202 47.838 313.618 47.76 314.073 47.76C314.489 47.76 314.879 47.838 315.243 47.981C315.594 48.124 315.893 48.332 316.153 48.605C316.413 48.878 316.608 49.216 316.751 49.606C316.881 49.996 316.959 50.451 316.959 50.945V51.27H312.045C312.058 51.53 312.123 51.79 312.227 52.024C312.331 52.258 312.474 52.466 312.656 52.648C312.825 52.83 313.033 52.96 313.267 53.064C313.501 53.168 313.748 53.22 314.034 53.22C314.476 53.22 314.84 53.142 315.152 52.986C315.451 52.83 315.724 52.609 315.971 52.297L316.738 52.895ZM315.867 50.412C315.841 49.892 315.672 49.476 315.36 49.164C315.035 48.852 314.593 48.696 314.034 48.696C313.462 48.696 313.007 48.852 312.669 49.164C312.318 49.476 312.11 49.892 312.045 50.412H315.867Z" fill="black"/>
<path d="M318.527 49.359C318.527 49.086 318.514 48.826 318.501 48.579C318.475 48.345 318.475 48.124 318.475 47.916H319.437C319.437 48.085 319.437 48.254 319.45 48.41C319.45 48.579 319.463 48.748 319.463 48.917H319.489C319.554 48.774 319.645 48.631 319.775 48.488C319.905 48.358 320.048 48.228 320.23 48.124C320.399 48.02 320.594 47.929 320.815 47.864C321.023 47.799 321.257 47.76 321.517 47.76C321.582 47.76 321.647 47.773 321.725 47.773C321.79 47.786 321.855 47.799 321.933 47.825L321.868 48.852C321.686 48.8 321.504 48.774 321.322 48.774C320.698 48.774 320.243 48.982 319.957 49.385C319.671 49.788 319.541 50.334 319.541 51.036V54H318.527V49.359Z" fill="black"/>
<path d="M328.94 53.727C328.94 54.845 328.654 55.69 328.082 56.262C327.51 56.834 326.691 57.12 325.625 57.12C325.027 57.12 324.481 57.042 324 56.86C323.519 56.691 323.064 56.392 322.635 55.963L323.363 55.131C323.675 55.482 324.013 55.742 324.377 55.924C324.741 56.106 325.157 56.184 325.625 56.184C326.067 56.184 326.444 56.119 326.743 55.989C327.042 55.859 327.276 55.677 327.458 55.443C327.627 55.209 327.744 54.949 327.822 54.65C327.887 54.364 327.926 54.052 327.926 53.727V52.947H327.9C327.653 53.337 327.341 53.623 326.951 53.805C326.561 53.987 326.158 54.078 325.755 54.078C325.274 54.078 324.832 54 324.442 53.844C324.039 53.688 323.701 53.48 323.415 53.194C323.129 52.921 322.908 52.596 322.752 52.206C322.596 51.829 322.518 51.413 322.518 50.958C322.518 50.464 322.596 50.022 322.752 49.619C322.908 49.229 323.116 48.891 323.402 48.618C323.688 48.345 324.026 48.137 324.429 47.981C324.819 47.838 325.261 47.76 325.755 47.76C325.963 47.76 326.171 47.786 326.379 47.838C326.587 47.89 326.782 47.955 326.977 48.059C327.172 48.163 327.354 48.28 327.51 48.436C327.666 48.592 327.796 48.761 327.9 48.956H327.926V47.916H328.94V53.727ZM323.61 50.958C323.61 51.27 323.662 51.569 323.779 51.829C323.883 52.089 324.039 52.323 324.234 52.518C324.429 52.713 324.663 52.869 324.923 52.973C325.183 53.09 325.456 53.142 325.755 53.142C326.093 53.142 326.405 53.09 326.678 52.96C326.938 52.843 327.172 52.687 327.354 52.479C327.536 52.271 327.679 52.037 327.783 51.777C327.874 51.517 327.926 51.231 327.926 50.932C327.926 50.607 327.874 50.308 327.77 50.035C327.666 49.762 327.51 49.528 327.328 49.32C327.133 49.125 326.899 48.969 326.639 48.865C326.366 48.761 326.067 48.696 325.755 48.696C325.43 48.696 325.131 48.761 324.871 48.878C324.611 48.995 324.377 49.151 324.195 49.359C324.013 49.567 323.87 49.801 323.766 50.074C323.662 50.347 323.61 50.646 323.61 50.958Z" fill="black"/>
<path d="M333.052 55.391C332.948 55.651 332.831 55.898 332.727 56.106C332.623 56.314 332.493 56.496 332.337 56.652C332.181 56.808 332 56.925 331.792 57.003C331.584 57.081 331.324 57.12 331.025 57.12C330.869 57.12 330.712 57.12 330.556 57.094C330.4 57.081 330.245 57.042 330.115 56.964L330.245 56.08C330.349 56.132 330.452 56.158 330.569 56.171C330.673 56.184 330.804 56.184 330.96 56.184C331.285 56.184 331.532 56.093 331.688 55.911C331.844 55.729 331.973 55.495 332.09 55.183L332.507 54.039L329.984 47.916H331.167L333.052 52.687H333.078L334.885 47.916H335.99L333.052 55.391Z" fill="black"/>
<path d="M347.336 46.694C347.05 46.33 346.712 46.044 346.309 45.862C345.893 45.68 345.477 45.576 345.035 45.576C344.515 45.576 344.047 45.68 343.618 45.888C343.189 46.096 342.825 46.382 342.513 46.733C342.201 47.084 341.954 47.487 341.785 47.955C341.603 48.423 341.525 48.904 341.525 49.398C341.525 49.944 341.603 50.438 341.785 50.906C341.954 51.374 342.188 51.777 342.5 52.115C342.812 52.453 343.176 52.726 343.605 52.921C344.034 53.129 344.515 53.22 345.035 53.22C345.594 53.22 346.101 53.116 346.543 52.895C346.985 52.674 347.362 52.349 347.7 51.933L348.519 52.622C348.103 53.181 347.596 53.584 347.011 53.844C346.426 54.104 345.763 54.234 345.035 54.234C344.372 54.234 343.761 54.117 343.189 53.87C342.617 53.636 342.11 53.298 341.694 52.869C341.278 52.44 340.94 51.933 340.706 51.335C340.472 50.75 340.355 50.1 340.355 49.398C340.355 48.722 340.459 48.098 340.693 47.5C340.927 46.915 341.252 46.408 341.668 45.966C342.084 45.537 342.578 45.199 343.15 44.939C343.722 44.692 344.346 44.562 345.035 44.562C345.659 44.562 346.257 44.679 346.829 44.9C347.401 45.134 347.895 45.498 348.285 46.005L347.336 46.694Z" fill="black"/>
<path d="M349.859 49.359C349.859 49.086 349.846 48.826 349.833 48.579C349.807 48.345 349.807 48.124 349.807 47.916H350.769C350.769 48.085 350.769 48.254 350.782 48.41C350.782 48.579 350.795 48.748 350.795 48.917H350.821C350.886 48.774 350.977 48.631 351.107 48.488C351.237 48.358 351.38 48.228 351.562 48.124C351.731 48.02 351.926 47.929 352.147 47.864C352.355 47.799 352.589 47.76 352.849 47.76C352.914 47.76 352.979 47.773 353.057 47.773C353.122 47.786 353.187 47.799 353.265 47.825L353.2 48.852C353.018 48.8 352.836 48.774 352.654 48.774C352.03 48.774 351.575 48.982 351.289 49.385C351.003 49.788 350.873 50.334 350.873 51.036V54H349.859V49.359Z" fill="black"/>
<path d="M359.635 52.895C359.271 53.363 358.868 53.701 358.439 53.883C357.997 54.065 357.503 54.156 356.931 54.156C356.45 54.156 356.021 54.078 355.644 53.909C355.254 53.74 354.929 53.506 354.669 53.22C354.409 52.934 354.201 52.596 354.058 52.206C353.915 51.816 353.85 51.4 353.85 50.958C353.85 50.49 353.928 50.061 354.084 49.671C354.24 49.281 354.448 48.943 354.734 48.657C355.007 48.371 355.332 48.15 355.722 47.994C356.099 47.838 356.515 47.76 356.97 47.76C357.386 47.76 357.776 47.838 358.14 47.981C358.491 48.124 358.79 48.332 359.05 48.605C359.31 48.878 359.505 49.216 359.648 49.606C359.778 49.996 359.856 50.451 359.856 50.945V51.27H354.942C354.955 51.53 355.02 51.79 355.124 52.024C355.228 52.258 355.371 52.466 355.553 52.648C355.722 52.83 355.93 52.96 356.164 53.064C356.398 53.168 356.645 53.22 356.931 53.22C357.373 53.22 357.737 53.142 358.049 52.986C358.348 52.83 358.621 52.609 358.868 52.297L359.635 52.895ZM358.764 50.412C358.738 49.892 358.569 49.476 358.257 49.164C357.932 48.852 357.49 48.696 356.931 48.696C356.359 48.696 355.904 48.852 355.566 49.164C355.215 49.476 355.007 49.892 354.942 50.412H358.764Z" fill="black"/>
<path d="M366.482 52.921H366.456C366.261 53.272 365.962 53.571 365.546 53.805C365.13 54.039 364.662 54.156 364.116 54.156C363.687 54.156 363.284 54.078 362.92 53.922C362.543 53.766 362.218 53.532 361.945 53.246C361.672 52.96 361.464 52.622 361.308 52.232C361.152 51.842 361.074 51.426 361.074 50.958C361.074 50.503 361.152 50.074 361.308 49.684C361.464 49.294 361.672 48.956 361.958 48.67C362.231 48.384 362.569 48.163 362.959 48.007C363.349 47.851 363.791 47.76 364.272 47.76C364.714 47.76 365.117 47.851 365.481 48.033C365.845 48.215 366.17 48.475 366.456 48.8H366.482V44.172H367.496V54H366.482V52.921ZM366.482 50.958C366.482 50.646 366.43 50.347 366.326 50.074C366.222 49.801 366.079 49.567 365.897 49.359C365.702 49.151 365.468 48.995 365.208 48.878C364.948 48.761 364.649 48.696 364.324 48.696C363.986 48.696 363.687 48.761 363.427 48.878C363.167 48.995 362.933 49.151 362.751 49.359C362.556 49.567 362.413 49.801 362.309 50.074C362.205 50.347 362.166 50.646 362.166 50.958C362.166 51.283 362.205 51.582 362.309 51.855C362.413 52.128 362.556 52.362 362.751 52.57C362.933 52.778 363.167 52.934 363.427 53.051C363.687 53.168 363.986 53.22 364.324 53.22C364.649 53.22 364.948 53.168 365.208 53.051C365.468 52.934 365.702 52.778 365.897 52.57C366.079 52.362 366.222 52.128 366.326 51.855C366.43 51.582 366.482 51.283 366.482 50.958Z" fill="black"/>
<path d="M369.476 47.916H370.49V54H369.476V47.916ZM369.242 45.537C369.242 45.342 369.307 45.173 369.45 45.017C369.593 44.874 369.775 44.796 369.983 44.796C370.191 44.796 370.36 44.874 370.503 45.017C370.646 45.173 370.724 45.342 370.724 45.537C370.724 45.758 370.646 45.94 370.516 46.07C370.373 46.213 370.191 46.278 369.983 46.278C369.762 46.278 369.58 46.213 369.45 46.07C369.307 45.94 369.242 45.758 369.242 45.537Z" fill="black"/>
<path d="M375.836 48.774H374.042V51.816C374.042 52.024 374.042 52.206 374.055 52.375C374.055 52.544 374.094 52.687 374.159 52.817C374.211 52.947 374.302 53.038 374.432 53.116C374.549 53.194 374.718 53.22 374.952 53.22C375.095 53.22 375.251 53.207 375.407 53.168C375.563 53.142 375.706 53.09 375.849 53.012L375.888 53.935C375.706 54.013 375.511 54.078 375.303 54.104C375.095 54.143 374.887 54.156 374.705 54.156C374.341 54.156 374.042 54.117 373.834 54.013C373.613 53.922 373.444 53.792 373.327 53.61C373.197 53.441 373.119 53.233 373.08 52.973C373.041 52.713 373.028 52.427 373.028 52.115V48.774H371.702V47.916H373.028V46.187H374.042V47.916H375.836V48.774Z" fill="black"/>
<path d="M377.208 52.401C377.403 52.661 377.624 52.856 377.858 52.999C378.092 53.155 378.404 53.22 378.768 53.22C378.924 53.22 379.08 53.207 379.236 53.168C379.392 53.142 379.548 53.077 379.678 52.999C379.808 52.921 379.912 52.83 379.99 52.713C380.068 52.596 380.107 52.453 380.107 52.284C380.107 52.128 380.068 51.985 379.99 51.881C379.912 51.777 379.821 51.699 379.704 51.621C379.574 51.543 379.444 51.491 379.288 51.439C379.132 51.4 378.963 51.361 378.807 51.322C378.521 51.27 378.248 51.192 377.988 51.114C377.728 51.036 377.494 50.945 377.299 50.815C377.104 50.685 376.948 50.529 376.831 50.321C376.714 50.126 376.662 49.866 376.662 49.554C376.662 49.268 376.727 49.008 376.857 48.774C376.987 48.553 377.156 48.371 377.377 48.215C377.585 48.072 377.832 47.955 378.105 47.877C378.365 47.799 378.651 47.76 378.937 47.76C379.366 47.76 379.769 47.851 380.133 48.02C380.497 48.202 380.796 48.475 381.004 48.865L380.159 49.424C380.029 49.216 379.847 49.034 379.639 48.904C379.431 48.774 379.171 48.696 378.872 48.696C378.729 48.696 378.586 48.722 378.443 48.748C378.3 48.787 378.17 48.839 378.066 48.904C377.949 48.982 377.858 49.073 377.78 49.177C377.702 49.281 377.676 49.411 377.676 49.541C377.676 49.671 377.715 49.788 377.793 49.879C377.871 49.97 377.988 50.048 378.131 50.113C378.274 50.191 378.443 50.243 378.625 50.295C378.807 50.347 379.002 50.399 379.21 50.425C379.47 50.477 379.73 50.555 379.977 50.633C380.211 50.711 380.432 50.828 380.614 50.958C380.796 51.101 380.939 51.27 381.043 51.478C381.147 51.686 381.199 51.946 381.199 52.245C381.199 52.596 381.121 52.895 380.991 53.129C380.848 53.376 380.666 53.571 380.432 53.727C380.198 53.883 379.938 53.987 379.652 54.052C379.366 54.13 379.067 54.156 378.768 54.156C378.248 54.156 377.793 54.078 377.416 53.922C377.039 53.766 376.701 53.467 376.402 53.025L377.208 52.401Z" fill="black"/>
<path d="M36 68H119V76H36V68Z" fill="#D9D9D9"/>
<path d="M501 71H549V77H501V71Z" fill="#D9D9D9"/>
<path d="M501 79H564V85H501V79Z" fill="#D9D9D9"/>
<path d="M36 77H112V85H36V77Z" fill="#D9D9D9"/>
<path d="M36 87H115V95H36V87Z" fill="#D9D9D9"/>
<path d="M86 116H239V129H86V116Z" fill="black"/>
<path d="M86 116H239V129H86V116Z" fill="black"/>
<path d="M36 139H394V152H36V139Z" fill="black"/>
<path d="M36 139H394V152H36V139Z" fill="black"/>
<path d="M36 116H74V129H36V116Z" fill="black"/>
<path d="M36 95H576V111H36V95Z" fill="#F0F3FF"/>
<path d="M41 178H294V194H41V178Z" fill="#F0F3FF"/>
<path d="M397 478H424V489H397V478Z" fill="#F0F3FF"/>
<path d="M432 478H485V489H432V478Z" fill="#F0F3FF"/>
<path d="M303 478H390V489H303V478Z" fill="#F0F3FF"/>
<path d="M254 478H296V489H254V478Z" fill="#F0F3FF"/>
<path d="M73 478H246V489H73V478Z" fill="#F0F3FF"/>
<path d="M300 178H344V194H300V178Z" fill="#F0F3FF"/>
<path d="M350 178H489V194H350V178Z" fill="#F0F3FF"/>
<path d="M494 178H525V194H494V178Z" fill="#F0F3FF"/>
<path d="M530 178H582V194H530V178Z" fill="#F0F3FF"/>
<path d="M510 48H576V65H510V48Z" fill="black"/>
<path d="M44 194H103V200H44V194Z" fill="black"/>
<path d="M300 194H327V200H300V194Z" fill="black"/>
<path d="M350 194H391V200H350V194Z" fill="black"/>
<path d="M497 194H518V200H497V194Z" fill="black"/>
<path d="M532 194H564V200H532V194Z" fill="black"/>
<path d="M55.24 225H54.484V219.6H54.466L53.323 220.563L52.873 220.014L54.583 218.628H55.24V225Z" fill="black"/>
<path d="M52.45 248.136L54.853 245.796C54.997 245.652 55.132 245.526 55.249 245.4C55.357 245.274 55.456 245.157 55.528 245.04C55.6 244.923 55.663 244.797 55.699 244.671C55.735 244.545 55.753 244.41 55.753 244.248C55.753 244.086 55.717 243.933 55.663 243.798C55.6 243.672 55.519 243.555 55.411 243.465C55.303 243.375 55.186 243.303 55.042 243.249C54.898 243.195 54.754 243.168 54.592 243.168C54.268 243.168 53.998 243.267 53.791 243.447C53.575 243.636 53.44 243.879 53.386 244.185L52.567 244.113C52.603 243.861 52.684 243.627 52.801 243.429C52.918 243.231 53.062 243.06 53.242 242.925C53.422 242.799 53.62 242.7 53.845 242.628C54.061 242.556 54.304 242.52 54.565 242.52C54.826 242.52 55.078 242.565 55.312 242.637C55.546 242.709 55.744 242.817 55.924 242.961C56.104 243.105 56.239 243.285 56.347 243.501C56.455 243.717 56.509 243.969 56.509 244.248C56.509 244.5 56.473 244.734 56.401 244.932C56.329 245.139 56.239 245.328 56.122 245.499C56.005 245.67 55.87 245.832 55.726 245.985C55.582 246.138 55.429 246.291 55.267 246.435L53.305 248.28V248.298H56.554V249H52.45V248.136Z" fill="black"/>
<path d="M53.836 267.328H54.07C54.223 267.328 54.385 267.319 54.556 267.292C54.727 267.274 54.88 267.22 55.024 267.139C55.168 267.067 55.285 266.95 55.375 266.806C55.465 266.662 55.519 266.464 55.519 266.221C55.519 265.897 55.411 265.645 55.213 265.456C55.015 265.267 54.754 265.168 54.43 265.168C54.16 265.168 53.926 265.231 53.728 265.348C53.53 265.474 53.368 265.645 53.26 265.879L52.531 265.6C52.684 265.24 52.927 264.97 53.26 264.79C53.593 264.61 53.962 264.52 54.376 264.52C54.628 264.52 54.862 264.556 55.096 264.628C55.33 264.7 55.528 264.808 55.708 264.943C55.879 265.087 56.014 265.258 56.122 265.465C56.221 265.672 56.275 265.915 56.275 266.185C56.275 266.527 56.167 266.824 55.969 267.094C55.771 267.364 55.51 267.544 55.186 267.643V267.661C55.384 267.697 55.564 267.769 55.726 267.859C55.888 267.958 56.023 268.075 56.14 268.219C56.248 268.363 56.338 268.516 56.401 268.696C56.455 268.876 56.491 269.065 56.491 269.263C56.491 269.569 56.428 269.839 56.32 270.064C56.203 270.298 56.05 270.487 55.861 270.64C55.663 270.802 55.438 270.919 55.186 270.991C54.934 271.072 54.664 271.108 54.385 271.108C53.899 271.108 53.476 271.009 53.116 270.793C52.756 270.586 52.495 270.244 52.333 269.767L53.098 269.515C53.206 269.857 53.359 270.1 53.557 270.244C53.755 270.388 54.025 270.46 54.385 270.46C54.565 270.46 54.727 270.433 54.889 270.37C55.042 270.316 55.177 270.226 55.294 270.118C55.411 270.01 55.501 269.875 55.573 269.722C55.645 269.569 55.681 269.398 55.681 269.209C55.681 268.975 55.627 268.786 55.537 268.624C55.447 268.462 55.321 268.336 55.168 268.246C55.015 268.156 54.844 268.084 54.655 268.039C54.457 268.003 54.268 267.976 54.07 267.976H53.836V267.328Z" fill="black"/>
<path d="M55.771 292.84H56.689V293.542H55.771V295H55.015V293.542H52.315V292.705L54.844 288.628H55.771V292.84ZM55.015 289.51H54.997L52.963 292.84H55.015V289.51Z" fill="black"/>
<path d="M56.266 313.33H53.665L53.638 315.049C53.755 314.995 53.89 314.95 54.034 314.932C54.178 314.914 54.322 314.896 54.457 314.896C54.763 314.896 55.033 314.95 55.285 315.058C55.537 315.166 55.753 315.31 55.933 315.499C56.113 315.688 56.248 315.913 56.347 316.165C56.437 316.417 56.491 316.696 56.491 316.993C56.491 317.317 56.428 317.605 56.32 317.866C56.212 318.127 56.059 318.352 55.861 318.532C55.663 318.712 55.438 318.856 55.168 318.955C54.898 319.063 54.61 319.108 54.304 319.108C53.818 319.108 53.422 319.009 53.125 318.793C52.828 318.586 52.594 318.307 52.423 317.947L53.179 317.659C53.287 317.902 53.44 318.1 53.647 318.244C53.854 318.388 54.097 318.46 54.367 318.46C54.556 318.46 54.736 318.433 54.898 318.361C55.06 318.289 55.204 318.19 55.33 318.064C55.456 317.938 55.555 317.776 55.627 317.596C55.699 317.416 55.735 317.218 55.735 316.993C55.735 316.759 55.69 316.552 55.609 316.372C55.528 316.192 55.42 316.048 55.276 315.922C55.132 315.796 54.97 315.706 54.781 315.643C54.583 315.58 54.376 315.544 54.16 315.544C53.944 315.544 53.719 315.589 53.494 315.661C53.26 315.733 53.053 315.832 52.864 315.94L52.927 312.628H56.266V313.33Z" fill="black"/>
<path d="M57.613 315.328C57.829 315.112 58.081 314.95 58.378 314.842C58.675 314.734 58.981 314.68 59.287 314.68C59.908 314.68 60.358 314.833 60.637 315.121C60.907 315.418 61.051 315.868 61.051 316.462V318.271C61.051 318.397 61.051 318.523 61.069 318.649C61.078 318.775 61.096 318.892 61.114 319H60.439C60.412 318.91 60.394 318.802 60.394 318.685C60.394 318.568 60.394 318.46 60.394 318.37H60.376C60.232 318.586 60.052 318.766 59.818 318.901C59.584 319.045 59.314 319.108 58.99 319.108C58.774 319.108 58.567 319.081 58.378 319.027C58.189 318.973 58.027 318.901 57.883 318.793C57.739 318.685 57.631 318.559 57.55 318.397C57.46 318.244 57.424 318.064 57.424 317.857C57.424 317.515 57.514 317.236 57.694 317.038C57.874 316.84 58.09 316.696 58.36 316.597C58.63 316.507 58.918 316.444 59.224 316.417C59.53 316.399 59.818 316.381 60.079 316.381H60.349V316.255C60.349 315.949 60.25 315.724 60.07 315.562C59.89 315.409 59.629 315.328 59.305 315.328C59.071 315.328 58.846 315.373 58.63 315.445C58.414 315.517 58.216 315.634 58.054 315.787L57.613 315.328ZM59.647 316.975C59.197 316.975 58.837 317.038 58.576 317.164C58.306 317.29 58.18 317.497 58.18 317.785C58.18 318.055 58.261 318.244 58.441 318.352C58.621 318.46 58.837 318.514 59.107 318.514C59.305 318.514 59.485 318.487 59.638 318.415C59.791 318.343 59.917 318.253 60.025 318.136C60.124 318.028 60.205 317.893 60.259 317.74C60.313 317.587 60.34 317.425 60.349 317.245V316.975H59.647Z" fill="black"/>
<path d="M57.63 348.196H58.332V351.4H58.35C58.539 351.175 58.764 350.995 59.016 350.869C59.268 350.743 59.556 350.68 59.862 350.68C60.186 350.68 60.492 350.743 60.762 350.851C61.032 350.959 61.266 351.112 61.464 351.31C61.653 351.508 61.806 351.742 61.914 352.012C62.022 352.282 62.076 352.579 62.076 352.894C62.076 353.218 62.022 353.506 61.914 353.776C61.806 354.046 61.653 354.28 61.464 354.478C61.275 354.676 61.05 354.838 60.798 354.946C60.537 355.054 60.258 355.108 59.97 355.108C59.592 355.108 59.259 355.027 58.971 354.865C58.683 354.703 58.476 354.496 58.35 354.253H58.332V355H57.63V348.196ZM58.332 352.894C58.332 353.119 58.359 353.326 58.431 353.515C58.503 353.704 58.602 353.866 58.737 354.01C58.863 354.154 59.025 354.262 59.205 354.343C59.385 354.424 59.592 354.46 59.826 354.46C60.051 354.46 60.258 354.424 60.438 354.343C60.618 354.262 60.78 354.154 60.915 354.01C61.041 353.866 61.14 353.704 61.212 353.515C61.284 353.326 61.32 353.119 61.32 352.894C61.32 352.678 61.284 352.471 61.212 352.282C61.14 352.093 61.041 351.931 60.915 351.787C60.78 351.643 60.618 351.535 60.438 351.454C60.258 351.373 60.051 351.328 59.826 351.328C59.592 351.328 59.385 351.373 59.205 351.454C59.025 351.535 58.863 351.643 58.737 351.787C58.602 351.931 58.503 352.093 58.431 352.282C58.359 352.471 58.332 352.678 58.332 352.894Z" fill="black"/>
<path d="M53.836 375.283L53.854 375.301C53.971 375.238 54.106 375.193 54.268 375.157C54.43 375.13 54.574 375.112 54.709 375.112C54.979 375.112 55.24 375.166 55.474 375.256C55.708 375.355 55.915 375.49 56.086 375.67C56.257 375.85 56.392 376.057 56.491 376.3C56.581 376.552 56.635 376.822 56.635 377.11C56.635 377.425 56.581 377.704 56.473 377.947C56.365 378.199 56.212 378.406 56.023 378.577C55.825 378.748 55.6 378.883 55.339 378.973C55.078 379.063 54.799 379.108 54.502 379.108C54.196 379.108 53.917 379.063 53.656 378.973C53.395 378.883 53.17 378.748 52.981 378.577C52.783 378.406 52.639 378.199 52.531 377.947C52.423 377.704 52.369 377.425 52.369 377.11C52.369 376.75 52.423 376.426 52.54 376.147C52.648 375.877 52.792 375.598 52.972 375.319L54.664 372.628H55.546L53.836 375.283ZM54.502 375.76C54.304 375.76 54.124 375.796 53.962 375.859C53.791 375.922 53.647 376.012 53.521 376.129C53.395 376.246 53.305 376.39 53.233 376.552C53.161 376.723 53.125 376.912 53.125 377.11C53.125 377.326 53.161 377.515 53.233 377.677C53.305 377.839 53.395 377.983 53.521 378.1C53.647 378.217 53.791 378.307 53.962 378.37C54.124 378.433 54.304 378.46 54.502 378.46C54.691 378.46 54.871 378.433 55.042 378.37C55.204 378.307 55.348 378.217 55.474 378.1C55.6 377.983 55.699 377.839 55.771 377.677C55.843 377.515 55.879 377.326 55.879 377.11C55.879 376.912 55.843 376.723 55.771 376.552C55.699 376.39 55.6 376.246 55.474 376.129C55.348 376.012 55.204 375.922 55.042 375.859C54.871 375.796 54.691 375.76 54.502 375.76Z" fill="black"/>
<path d="M57.613 375.328C57.829 375.112 58.081 374.95 58.378 374.842C58.675 374.734 58.981 374.68 59.287 374.68C59.908 374.68 60.358 374.833 60.637 375.121C60.907 375.418 61.051 375.868 61.051 376.462V378.271C61.051 378.397 61.051 378.523 61.069 378.649C61.078 378.775 61.096 378.892 61.114 379H60.439C60.412 378.91 60.394 378.802 60.394 378.685C60.394 378.568 60.394 378.46 60.394 378.37H60.376C60.232 378.586 60.052 378.766 59.818 378.901C59.584 379.045 59.314 379.108 58.99 379.108C58.774 379.108 58.567 379.081 58.378 379.027C58.189 378.973 58.027 378.901 57.883 378.793C57.739 378.685 57.631 378.559 57.55 378.397C57.46 378.244 57.424 378.064 57.424 377.857C57.424 377.515 57.514 377.236 57.694 377.038C57.874 376.84 58.09 376.696 58.36 376.597C58.63 376.507 58.918 376.444 59.224 376.417C59.53 376.399 59.818 376.381 60.079 376.381H60.349V376.255C60.349 375.949 60.25 375.724 60.07 375.562C59.89 375.409 59.629 375.328 59.305 375.328C59.071 375.328 58.846 375.373 58.63 375.445C58.414 375.517 58.216 375.634 58.054 375.787L57.613 375.328ZM59.647 376.975C59.197 376.975 58.837 377.038 58.576 377.164C58.306 377.29 58.18 377.497 58.18 377.785C58.18 378.055 58.261 378.244 58.441 378.352C58.621 378.46 58.837 378.514 59.107 378.514C59.305 378.514 59.485 378.487 59.638 378.415C59.791 378.343 59.917 378.253 60.025 378.136C60.124 378.028 60.205 377.893 60.259 377.74C60.313 377.587 60.34 377.425 60.349 377.245V376.975H59.647Z" fill="black"/>
<path d="M57.63 396.196H58.332V399.4H58.35C58.539 399.175 58.764 398.995 59.016 398.869C59.268 398.743 59.556 398.68 59.862 398.68C60.186 398.68 60.492 398.743 60.762 398.851C61.032 398.959 61.266 399.112 61.464 399.31C61.653 399.508 61.806 399.742 61.914 400.012C62.022 400.282 62.076 400.579 62.076 400.894C62.076 401.218 62.022 401.506 61.914 401.776C61.806 402.046 61.653 402.28 61.464 402.478C61.275 402.676 61.05 402.838 60.798 402.946C60.537 403.054 60.258 403.108 59.97 403.108C59.592 403.108 59.259 403.027 58.971 402.865C58.683 402.703 58.476 402.496 58.35 402.253H58.332V403H57.63V396.196ZM58.332 400.894C58.332 401.119 58.359 401.326 58.431 401.515C58.503 401.704 58.602 401.866 58.737 402.01C58.863 402.154 59.025 402.262 59.205 402.343C59.385 402.424 59.592 402.46 59.826 402.46C60.051 402.46 60.258 402.424 60.438 402.343C60.618 402.262 60.78 402.154 60.915 402.01C61.041 401.866 61.14 401.704 61.212 401.515C61.284 401.326 61.32 401.119 61.32 400.894C61.32 400.678 61.284 400.471 61.212 400.282C61.14 400.093 61.041 399.931 60.915 399.787C60.78 399.643 60.618 399.535 60.438 399.454C60.258 399.373 60.051 399.328 59.826 399.328C59.592 399.328 59.385 399.373 59.205 399.454C59.025 399.535 58.863 399.643 58.737 399.787C58.602 399.931 58.503 400.093 58.431 400.282C58.359 400.471 58.332 400.678 58.332 400.894Z" fill="black"/>
<path d="M56.32 421.33L53.773 427H52.918L55.51 421.33H52.432V420.628H56.32V421.33Z" fill="black"/>
<path d="M57.613 423.328C57.829 423.112 58.081 422.95 58.378 422.842C58.675 422.734 58.981 422.68 59.287 422.68C59.908 422.68 60.358 422.833 60.637 423.121C60.907 423.418 61.051 423.868 61.051 424.462V426.271C61.051 426.397 61.051 426.523 61.069 426.649C61.078 426.775 61.096 426.892 61.114 427H60.439C60.412 426.91 60.394 426.802 60.394 426.685C60.394 426.568 60.394 426.46 60.394 426.37H60.376C60.232 426.586 60.052 426.766 59.818 426.901C59.584 427.045 59.314 427.108 58.99 427.108C58.774 427.108 58.567 427.081 58.378 427.027C58.189 426.973 58.027 426.901 57.883 426.793C57.739 426.685 57.631 426.559 57.55 426.397C57.46 426.244 57.424 426.064 57.424 425.857C57.424 425.515 57.514 425.236 57.694 425.038C57.874 424.84 58.09 424.696 58.36 424.597C58.63 424.507 58.918 424.444 59.224 424.417C59.53 424.399 59.818 424.381 60.079 424.381H60.349V424.255C60.349 423.949 60.25 423.724 60.07 423.562C59.89 423.409 59.629 423.328 59.305 423.328C59.071 423.328 58.846 423.373 58.63 423.445C58.414 423.517 58.216 423.634 58.054 423.787L57.613 423.328ZM59.647 424.975C59.197 424.975 58.837 425.038 58.576 425.164C58.306 425.29 58.18 425.497 58.18 425.785C58.18 426.055 58.261 426.244 58.441 426.352C58.621 426.46 58.837 426.514 59.107 426.514C59.305 426.514 59.485 426.487 59.638 426.415C59.791 426.343 59.917 426.253 60.025 426.136C60.124 426.028 60.205 425.893 60.259 425.74C60.313 425.587 60.34 425.425 60.349 425.245V424.975H59.647Z" fill="black"/>
<path d="M57.63 469.196H58.332V472.4H58.35C58.539 472.175 58.764 471.995 59.016 471.869C59.268 471.743 59.556 471.68 59.862 471.68C60.186 471.68 60.492 471.743 60.762 471.851C61.032 471.959 61.266 472.112 61.464 472.31C61.653 472.508 61.806 472.742 61.914 473.012C62.022 473.282 62.076 473.579 62.076 473.894C62.076 474.218 62.022 474.506 61.914 474.776C61.806 475.046 61.653 475.28 61.464 475.478C61.275 475.676 61.05 475.838 60.798 475.946C60.537 476.054 60.258 476.108 59.97 476.108C59.592 476.108 59.259 476.027 58.971 475.865C58.683 475.703 58.476 475.496 58.35 475.253H58.332V476H57.63V469.196ZM58.332 473.894C58.332 474.119 58.359 474.326 58.431 474.515C58.503 474.704 58.602 474.866 58.737 475.01C58.863 475.154 59.025 475.262 59.205 475.343C59.385 475.424 59.592 475.46 59.826 475.46C60.051 475.46 60.258 475.424 60.438 475.343C60.618 475.262 60.78 475.154 60.915 475.01C61.041 474.866 61.14 474.704 61.212 474.515C61.284 474.326 61.32 474.119 61.32 473.894C61.32 473.678 61.284 473.471 61.212 473.282C61.14 473.093 61.041 472.931 60.915 472.787C60.78 472.643 60.618 472.535 60.438 472.454C60.258 472.373 60.051 472.328 59.826 472.328C59.592 472.328 59.385 472.373 59.205 472.454C59.025 472.535 58.863 472.643 58.737 472.787C58.602 472.931 58.503 473.093 58.431 473.282C58.359 473.471 58.332 473.678 58.332 473.894Z" fill="black"/>
<path d="M74 216H227V225H74V216Z" fill="black"/>
<path d="M74 216H227V225H74V216Z" fill="black"/>
<path d="M74 240H247V249H74V240Z" fill="black"/>
<path d="M74 240H247V249H74V240Z" fill="black"/>
<path d="M74 264H244V273H74V264Z" fill="black"/>
<path d="M74 264H244V273H74V264Z" fill="black"/>
<path d="M74 370H166V379H74V370Z" fill="black"/>
<path d="M74 370H166V379H74V370Z" fill="black"/>
<path d="M73 456H144V465H73V456Z" fill="black"/>
<path d="M73 456H144V465H73V456Z" fill="black"/>
<path d="M74 396H191V405H74V396Z" fill="black"/>
<path d="M74 396H191V405H74V396Z" fill="black"/>
<path d="M73 418H485V427H73V418Z" fill="black"/>
<path d="M73 418H485V427H73V418Z" fill="black"/>
<path d="M73 432H314V441H73V432Z" fill="black"/>
<path d="M73 432H314V441H73V432Z" fill="black"/>
<path d="M73 445H485V454H73V445Z" fill="black"/>
<path d="M73 445H485V454H73V445Z" fill="black"/>
<path d="M74 288H262V297H74V288Z" fill="black"/>
<path d="M74 288H262V297H74V288Z" fill="black"/>
<path d="M74 348H371V357H74V348Z" fill="black"/>
<path d="M74 348H371V357H74V348Z" fill="black"/>
<path d="M73 467H427V476H73V467Z" fill="black"/>
<path d="M73 467H427V476H73V467Z" fill="black"/>
<path d="M73 312H485V321H73V312Z" fill="black"/>
<path d="M73 312H485V321H73V312Z" fill="black"/>
<path d="M73 323H485V332H73V323Z" fill="black"/>
<path d="M73 323H485V332H73V323Z" fill="black"/>
<path d="M73 334H228V343H73V334Z" fill="black"/>
<path d="M73 334H228V343H73V334Z" fill="black"/>
<line x1="122.5" y1="38" x2="122.5" y2="87" stroke="black"/>
<line x1="489.5" y1="38" x2="489.5" y2="87" stroke="black"/>
<line x1="36" y1="86.5" x2="577" y2="86.5" stroke="black"/>
<line x1="36" y1="110.5" x2="577" y2="110.5" stroke="black"/>
<line x1="467.5" y1="87" x2="467.5" y2="111" stroke="black"/>
<line x1="41" y1="193.5" x2="294" y2="193.5" stroke="black"/>
<line x1="41" y1="193.5" x2="294" y2="193.5" stroke="black"/>
<line x1="300" y1="193.5" x2="344" y2="193.5" stroke="black"/>
<line x1="300" y1="193.5" x2="344" y2="193.5" stroke="black"/>
<line x1="350" y1="193.5" x2="489" y2="193.5" stroke="black"/>
<line x1="350" y1="193.5" x2="489" y2="193.5" stroke="black"/>
<line x1="494" y1="193.5" x2="525" y2="193.5" stroke="black"/>
<line x1="494" y1="193.5" x2="525" y2="193.5" stroke="black"/>
<line x1="530" y1="193.5" x2="582" y2="193.5" stroke="black"/>
<line x1="530" y1="193.5" x2="582" y2="193.5" stroke="black"/>
<line x1="510.5" y1="95" x2="510.5" y2="111" stroke="black"/>
<line x1="510.5" y1="95" x2="510.5" y2="111" stroke="black"/>
<line x1="510.5" y1="95" x2="510.5" y2="111" stroke="black"/>
<line x1="535.5" y1="95" x2="535.5" y2="111" stroke="black"/>
<line x1="535.5" y1="95" x2="535.5" y2="111" stroke="black"/>
<line x1="535.5" y1="95" x2="535.5" y2="111" stroke="black"/>
<line x1="252" y1="489.5" x2="296" y2="489.5" stroke="black"/>
<line x1="73" y1="489.5" x2="246" y2="489.5" stroke="black"/>
<line x1="73" y1="489.5" x2="246" y2="489.5" stroke="black"/>
<line x1="303" y1="489.5" x2="390" y2="489.5" stroke="black"/>
<line x1="397" y1="489.5" x2="427" y2="489.5" stroke="black"/>
<line x1="432" y1="489.5" x2="485" y2="489.5" stroke="black"/>
</svg>
