<svg width="500" height="501" viewBox="0 0 500 501" fill="none" xmlns="http://www.w3.org/2000/svg">
<path d="M500 250C500 388.071 388.071 500 250 500C111.929 500 0 388.071 0 250C0 111.929 111.929 0 250 0C388.071 0 500 111.929 500 250Z" fill="#BAFFF3"/>
<path d="M7 198.5C18.1667 245.667 47.7 331.7 76.5 298.5C112.5 257 248.5 154.5 248.5 215.5C248.5 244.054 263.838 217.829 285.539 180.724C310.199 138.562 343.075 82.3509 371 76.4999C402.196 69.9637 406.819 60.8162 403.718 54.2204C361.237 20.8807 307.69 1 249.5 1C132.787 1 34.7535 80.9791 7.21724 189.121C7.0697 192.45 7 195.584 7 198.5Z" fill="#86FFCA"/>
<path d="M499.221 239.082C498.08 244.25 496.999 250.191 496 257C486.956 318.662 419.443 325.91 369.597 331.262C358.814 332.419 348.859 333.488 340.5 335C306.353 341.175 255.05 443.079 234.681 500.568C239.584 500.855 244.525 501 249.5 501C387.571 501 499.5 389.071 499.5 251C499.5 247.005 499.406 243.032 499.221 239.082Z" fill="#86FFCA"/>
</svg>
