<svg width="349" height="624" viewBox="0 0 349 624" fill="none" xmlns="http://www.w3.org/2000/svg">
<path d="M18.503 620.604C11.3006 629.198 -2.41931 621.247 1.45487 610.726L142.143 228.633C144.051 223.451 149.8 220.796 154.982 222.704L292.199 273.228C298.695 275.62 300.854 283.73 296.408 289.036L18.503 620.604Z" fill="#FFFA7F"/>
<path d="M313.877 51.74C319.957 53.2011 323.22 59.8214 320.674 65.5333L192.006 354.3C189.593 359.716 183.024 361.854 177.884 358.897L42.5656 281.027C38.5944 278.742 36.6842 274.05 37.93 269.641L110.509 12.75C111.969 7.58315 117.249 4.49117 122.469 5.74563L313.877 51.74Z" fill="#FFFA7F"/>
<path d="M132.386 22.8962L140.806 2.89624L118.306 5.70495L132.386 22.8962Z" fill="#FFFA7F"/>
<path d="M27.3064 595.396L41.8063 618.396L12.3064 624.396L27.3064 595.396Z" fill="#FFFA7F"/>
<path d="M341.409 46.4257C347.489 47.8867 350.752 54.5071 348.206 60.219L219.538 348.985C217.125 354.401 210.556 356.54 205.416 353.583L70.0976 275.713C66.1264 273.428 64.2162 268.736 65.462 264.327L138.041 7.43567C139.501 2.26883 144.781 -0.823145 150.001 0.431318L341.409 46.4257Z" fill="#FFE662"/>
<path d="M46.035 615.29C38.8326 623.883 25.1127 615.933 28.9869 605.411L169.675 223.319C171.583 218.136 177.332 215.482 182.514 217.39L319.731 267.914C326.227 270.306 328.386 278.416 323.94 283.721L46.035 615.29Z" fill="#FFE662"/>
</svg>
