<svg width="112" height="150" viewBox="0 0 112 150" fill="none" xmlns="http://www.w3.org/2000/svg">
<path d="M94.4602 102C82.7935 115.667 66.9203 149.5 94.4602 149.5C122 149.5 104.794 116.833 94.4602 102Z" fill="#BCFFF3"/>
<path d="M4 41.4044V62.5861C4 65.3476 6.23389 67.5846 8.99523 67.564C25.7789 67.4387 54.5339 66.8859 65 68.6904C73.748 70.1986 76.6003 78.6619 77.1165 85.3772C77.3486 88.3958 79.6936 91.0861 82.7211 91.0861H103.37C105.767 91.0861 107.862 89.3818 108.071 86.9936C110.203 62.5968 89.7622 40.7437 76.5 37.5861C68.6679 35.7213 31.9735 35.7401 8.80951 36.4267C6.12128 36.5064 4 38.715 4 41.4044Z" fill="#D9D9D9"/>
<rect x="75" y="84" width="37" height="7" rx="3.5" fill="#BFBFBF"/>
<rect y="72" width="39" height="16" rx="8" transform="rotate(-90 0 72)" fill="#CECECE"/>
<path d="M27.34 24.3746C28.034 22.3556 29.9334 21 32.0684 21H58.035C60.1192 21 61.9848 22.2929 62.7166 24.2444L67.5 37H23L27.34 24.3746Z" fill="#EBEBEB"/>
<rect x="40" y="15" width="10" height="6" fill="#D9D9D9"/>
<ellipse cx="45" cy="9" rx="10" ry="9" fill="#D9D9D9"/>
<path d="M30.5747 9C30.5747 13.9706 26.0976 18 20.5747 18C15.0519 18 16.0747 13.9706 16.0747 9C16.0747 4.02944 15.0519 0 20.5747 0C26.0976 0 30.5747 4.02944 30.5747 9Z" fill="#D9D9D9"/>
<rect x="25" y="4" width="15" height="9" fill="#D9D9D9"/>
<path d="M60.4272 9C60.4272 4.02944 64.9044 0 70.4272 0C75.9501 0 74.9272 4.02944 74.9272 9C74.9272 13.9706 75.9501 18 70.4272 18C64.9044 18 60.4272 13.9706 60.4272 9Z" fill="#D9D9D9"/>
<rect x="66" y="13.9392" width="15" height="9" transform="rotate(-180 66 13.9392)" fill="#D9D9D9"/>
</svg>
