<svg width="94" height="73" viewBox="0 0 94 73" fill="none" xmlns="http://www.w3.org/2000/svg">
<path d="M68.3351 54.3566C107.265 40.9415 49.1902 7.79267 1.88231 0.298505C-4.44312 27.7948 15.8501 68.3506 64.0386 55.6507C64.3072 55.5799 64.5724 55.5084 64.834 55.4361C58.04 51.2768 38.0528 34.1485 35.2667 31.0485C35.0376 30.7936 34.47 30.1887 33.6772 29.3436C29.5063 24.8983 19.1004 13.8076 18.9249 12.0575C18.9999 12.1093 20.0238 12.9477 21.6119 14.2481C26.2432 18.0404 35.6732 25.762 40.3606 29.3625C42.4245 30.9479 45.8658 34.1384 50.1065 38.0699C55.3299 42.9126 61.7662 48.8797 68.3351 54.3566Z" fill="#A9FBD7"/>
<path d="M80.6054 64.9612C69.9187 60.0239 66.1036 56.7287 64.9221 55.4229L60.8272 56.3473C62.635 57.8659 67.1725 61.7865 77.5104 67.1683C90.4329 73.8955 91.0102 72.5217 92.5928 71.5865C94.1755 70.6513 93.9638 71.1327 80.6054 64.9612Z" fill="#A9FBD7"/>
</svg>
