<svg width="1662" height="1200" viewBox="0 0 1662 1200" fill="none" xmlns="http://www.w3.org/2000/svg">
<path d="M703.938 958.928C703.938 1057.02 624.42 1136.54 526.331 1136.54C428.241 1136.54 348.724 1057.02 348.724 958.928C348.724 860.839 428.241 781.321 526.331 781.321C624.42 781.321 703.938 860.839 703.938 958.928ZM430.227 958.928C430.227 1012 473.254 1055.03 526.331 1055.03C579.407 1055.03 622.434 1012 622.434 958.928C622.434 905.852 579.407 862.825 526.331 862.825C473.254 862.825 430.227 905.852 430.227 958.928Z" fill="#B0C6CE"/>
<rect x="489.033" y="720.047" width="80.8112" height="91.4675" fill="#B0C6CE"/>
<rect x="679.06" y="757.012" width="80.8112" height="87.892" transform="rotate(45 679.06 757.012)" fill="#B0C6CE"/>
<rect x="695.058" y="999.778" width="80.8111" height="80.8112" transform="rotate(-90 695.058 999.778)" fill="#B0C6CE"/>
<rect x="734.401" y="1109.18" width="80.8112" height="87.892" transform="rotate(134.783 734.401 1109.18)" fill="#B0C6CE"/>
<rect x="491.697" y="1118.11" width="80.8112" height="81.8919" transform="rotate(-0.217325 491.697 1118.11)" fill="#B0C6CE"/>
<rect x="286.514" y="1002.63" width="80.8111" height="82.9416" transform="rotate(-90.2173 286.514 1002.63)" fill="#B0C6CE"/>
<rect x="327.551" y="812.448" width="80.8111" height="87.892" transform="rotate(-45.2173 327.551 812.448)" fill="#B0C6CE"/>
<rect x="383.402" y="1166.11" width="80.8112" height="87.892" transform="rotate(-135.217 383.402 1166.11)" fill="#B0C6CE"/>
<path d="M1517.32 578.878C1517.32 775.057 1358.28 934.092 1162.1 934.092C965.922 934.092 806.887 775.057 806.887 578.878C806.887 382.699 965.922 223.664 1162.1 223.664C1358.28 223.664 1517.32 382.699 1517.32 578.878ZM969.895 578.878C969.895 685.03 1055.95 771.084 1162.1 771.084C1268.25 771.084 1354.31 685.03 1354.31 578.878C1354.31 472.725 1268.25 386.672 1162.1 386.672C1055.95 386.672 969.895 472.725 969.895 578.878Z" fill="#B0C6CE"/>
<rect x="1087.51" y="101.115" width="161.622" height="182.935" fill="#B0C6CE"/>
<rect x="1467.56" y="175.044" width="161.622" height="175.784" transform="rotate(45 1467.56 175.044)" fill="#B0C6CE"/>
<rect x="1499.55" y="660.577" width="161.622" height="161.622" transform="rotate(-90 1499.55 660.577)" fill="#B0C6CE"/>
<rect x="1578.24" y="879.386" width="161.622" height="175.784" transform="rotate(134.783 1578.24 879.386)" fill="#B0C6CE"/>
<rect x="1092.83" y="897.238" width="161.622" height="163.784" transform="rotate(-0.217326 1092.83 897.238)" fill="#B0C6CE"/>
<rect x="682.466" y="666.284" width="161.622" height="165.883" transform="rotate(-90.2173 682.466 666.284)" fill="#B0C6CE"/>
<rect x="764.542" y="285.917" width="161.622" height="175.784" transform="rotate(-45.2173 764.542 285.917)" fill="#B0C6CE"/>
<rect x="876.244" y="993.243" width="161.622" height="175.784" transform="rotate(-135.217 876.244 993.243)" fill="#B0C6CE"/>
<path d="M626.596 358.322C626.596 505.456 507.32 624.732 360.186 624.732C213.051 624.732 93.7751 505.456 93.7751 358.322C93.7751 211.188 213.051 91.9116 360.186 91.9116C507.32 91.9116 626.596 211.188 626.596 358.322ZM216.031 358.322C216.031 437.936 280.571 502.477 360.186 502.477C439.8 502.477 504.34 437.936 504.34 358.322C504.34 278.708 439.8 214.167 360.186 214.167C280.571 214.167 216.031 278.708 216.031 358.322Z" fill="#B0C6CE"/>
<rect x="304.239" width="121.217" height="137.201" fill="#B0C6CE"/>
<rect x="589.279" y="55.4468" width="121.217" height="131.838" transform="rotate(45 589.279 55.4468)" fill="#B0C6CE"/>
<rect x="613.275" y="419.596" width="121.217" height="121.217" transform="rotate(-90 613.275 419.596)" fill="#B0C6CE"/>
<rect x="672.292" y="583.703" width="121.217" height="131.838" transform="rotate(134.783 672.292 583.703)" fill="#B0C6CE"/>
<rect x="308.235" y="597.092" width="121.217" height="122.838" transform="rotate(-0.217326 308.235 597.092)" fill="#B0C6CE"/>
<rect x="0.459717" y="423.876" width="121.217" height="124.412" transform="rotate(-90.2173 0.459717 423.876)" fill="#B0C6CE"/>
<rect x="62.0166" y="138.601" width="121.217" height="131.838" transform="rotate(-45.2173 62.0166 138.601)" fill="#B0C6CE"/>
<rect x="145.793" y="669.096" width="121.217" height="131.838" transform="rotate(-135.217 145.793 669.096)" fill="#B0C6CE"/>
</svg>
