<svg width="6785" height="4902" viewBox="0 0 6785 4902" fill="none" xmlns="http://www.w3.org/2000/svg">
<path d="M2875.2 3916.7C2875.2 4317.34 2550.42 4642.13 2149.77 4642.13C1749.13 4642.13 1424.35 4317.34 1424.35 3916.7C1424.35 3516.06 1749.13 3191.27 2149.77 3191.27C2550.42 3191.27 2875.2 3516.06 2875.2 3916.7ZM1757.25 3916.7C1757.25 4133.49 1932.99 4309.23 2149.77 4309.23C2366.56 4309.23 2542.3 4133.49 2542.3 3916.7C2542.3 3699.91 2366.56 3524.17 2149.77 3524.17C1932.99 3524.17 1757.25 3699.91 1757.25 3916.7Z" fill="#BCFFF3"/>
<rect x="1997.43" y="2941" width="330.07" height="373.595" fill="#BCFFF3"/>
<rect x="2773.59" y="3091.98" width="330.07" height="358.991" transform="rotate(45 2773.59 3091.98)" fill="#BCFFF3"/>
<rect x="2838.93" y="4083.55" width="330.07" height="330.07" transform="rotate(-90 2838.93 4083.55)" fill="#BCFFF3"/>
<rect x="2999.63" y="4530.41" width="330.07" height="358.991" transform="rotate(134.783 2999.63 4530.41)" fill="#BCFFF3"/>
<rect x="2008.32" y="4566.87" width="330.07" height="334.484" transform="rotate(-0.217326 2008.32 4566.87)" fill="#BCFFF3"/>
<rect x="1170.25" y="4095.2" width="330.07" height="338.771" transform="rotate(-90.2173 1170.25 4095.2)" fill="#BCFFF3"/>
<rect x="1337.87" y="3318.41" width="330.069" height="358.991" transform="rotate(-45.2173 1337.87 3318.41)" fill="#BCFFF3"/>
<rect x="1565.99" y="4762.93" width="330.069" height="358.991" transform="rotate(-135.217 1565.99 4762.93)" fill="#BCFFF3"/>
<path d="M6197.4 2364.4C6197.4 3165.68 5547.83 3815.25 4746.55 3815.25C3945.26 3815.25 3295.69 3165.68 3295.69 2364.4C3295.69 1563.11 3945.26 913.545 4746.55 913.545C5547.83 913.545 6197.4 1563.11 6197.4 2364.4ZM3961.49 2364.4C3961.49 2797.98 4312.97 3149.46 4746.55 3149.46C5180.12 3149.46 5531.61 2797.98 5531.61 2364.4C5531.61 1930.82 5180.12 1579.34 4746.55 1579.34C4312.97 1579.34 3961.49 1930.82 3961.49 2364.4Z" fill="#BCFFF3"/>
<rect x="4441.87" y="413" width="660.139" height="747.19" fill="#BCFFF3"/>
<rect x="5994.18" y="714.961" width="660.139" height="717.982" transform="rotate(45 5994.18 714.961)" fill="#BCFFF3"/>
<rect x="6124.86" y="2698.1" width="660.139" height="660.139" transform="rotate(-90 6124.86 2698.1)" fill="#BCFFF3"/>
<rect x="6446.26" y="3591.81" width="660.139" height="717.982" transform="rotate(134.783 6446.26 3591.81)" fill="#BCFFF3"/>
<rect x="4463.63" y="3664.73" width="660.139" height="668.968" transform="rotate(-0.217326 4463.63 3664.73)" fill="#BCFFF3"/>
<rect x="2787.5" y="2721.41" width="660.139" height="677.542" transform="rotate(-90.2173 2787.5 2721.41)" fill="#BCFFF3"/>
<rect x="3122.74" y="1167.81" width="660.139" height="717.982" transform="rotate(-45.2173 3122.74 1167.81)" fill="#BCFFF3"/>
<rect x="3578.98" y="4056.86" width="660.139" height="717.982" transform="rotate(-135.217 3578.98 4056.86)" fill="#BCFFF3"/>
<path d="M2559.3 1463.55C2559.3 2064.51 2072.13 2551.69 1471.16 2551.69C870.198 2551.69 383.02 2064.51 383.02 1463.55C383.02 862.587 870.198 375.409 1471.16 375.409C2072.13 375.409 2559.3 862.587 2559.3 1463.55ZM882.368 1463.55C882.368 1788.73 1145.98 2052.34 1471.16 2052.34C1796.34 2052.34 2059.95 1788.73 2059.95 1463.55C2059.95 1138.37 1796.34 874.757 1471.16 874.757C1145.98 874.757 882.368 1138.37 882.368 1463.55Z" fill="#BCFFF3"/>
<rect x="1242.65" width="495.104" height="560.393" fill="#BCFFF3"/>
<rect x="2406.88" y="226.471" width="495.104" height="538.486" transform="rotate(45 2406.88 226.471)" fill="#BCFFF3"/>
<rect x="2504.9" y="1713.82" width="495.104" height="495.104" transform="rotate(-90 2504.9 1713.82)" fill="#BCFFF3"/>
<rect x="2745.94" y="2384.11" width="495.104" height="538.486" transform="rotate(134.783 2745.94 2384.11)" fill="#BCFFF3"/>
<rect x="1258.97" y="2438.8" width="495.104" height="501.726" transform="rotate(-0.217326 1258.97 2438.8)" fill="#BCFFF3"/>
<rect x="1.87793" y="1731.3" width="495.104" height="508.157" transform="rotate(-90.2173 1.87793 1731.3)" fill="#BCFFF3"/>
<rect x="253.304" y="566.109" width="495.104" height="538.486" transform="rotate(-45.2173 253.304 566.109)" fill="#BCFFF3"/>
<rect x="595.484" y="2732.89" width="495.104" height="538.486" transform="rotate(-135.217 595.484 2732.89)" fill="#BCFFF3"/>
</svg>
