<svg width="819" height="832" viewBox="0 0 819 832" fill="none" xmlns="http://www.w3.org/2000/svg">
<path d="M273.503 724.604C266.301 733.198 252.581 725.247 256.455 714.726L397.143 332.633C399.051 327.451 404.8 324.796 409.982 326.704L547.199 377.228C553.695 379.62 555.854 387.73 551.408 393.036L273.503 724.604Z" fill="#75FFB5"/>
<path d="M568.877 155.74C574.957 157.201 578.22 163.821 575.674 169.533L447.006 458.3C444.593 463.716 438.024 465.854 432.884 462.897L297.566 385.027C293.594 382.742 291.684 378.05 292.93 373.641L365.509 116.75C366.969 111.583 372.249 108.491 377.469 109.746L568.877 155.74Z" fill="#75FFB5"/>
<path d="M39.6094 490.788C21.5199 494.142 3.99319 482.198 2.12166 463.896C-3.07165 413.108 1.27983 361.695 15.0571 312.333C31.8257 252.254 62.1134 196.806 103.603 150.23C145.093 103.654 196.686 67.1853 254.435 43.6121C301.883 24.2442 352.454 14.0032 403.501 13.3157C421.897 13.0679 435.779 29.1033 434.529 47.4587C433.28 65.8141 417.363 79.511 398.973 80.0503C358.086 81.2493 317.651 89.7689 279.614 105.296C231.272 125.029 188.083 155.558 153.351 194.546C118.62 233.535 93.2659 279.951 79.2288 330.244C68.184 369.816 64.3756 410.963 67.8912 451.716C69.4725 470.046 57.6988 487.433 39.6094 490.788Z" fill="#75FFB5"/>
<path d="M413.173 92.4279L484.093 52.4166C488.033 50.1938 488.089 44.5393 484.194 42.2386L414.084 0.825443C410.189 -1.47529 405.264 1.30328 405.219 5.82685L404.409 87.2512C404.364 91.7748 409.233 94.6507 413.173 92.4279Z" fill="#75FFB5"/>
<path d="M567.932 81.8589C575.714 65.1881 595.619 57.8654 611.602 66.9783C655.951 92.2656 695.263 125.685 727.428 165.582C766.577 214.142 794.1 271.013 807.894 331.844C821.687 392.676 821.384 455.856 807.009 516.552C795.198 566.421 774.144 613.528 745.039 655.471C734.55 670.586 713.433 672.565 699.221 660.881C685.01 649.197 683.112 628.284 693.36 613.005C716.145 579.034 732.709 541.176 742.178 501.198C754.212 450.388 754.465 397.5 742.919 346.577C731.372 295.655 708.332 248.048 675.56 207.398C649.775 175.413 618.502 148.402 583.293 127.581C567.457 118.216 560.149 98.5297 567.932 81.8589Z" fill="#75FFB5"/>
<path d="M675.035 617.368L666.384 698.336C665.903 702.834 670.472 706.165 674.608 704.333L749.054 671.341C753.189 669.509 753.79 663.886 750.135 661.22L684.341 613.244C680.686 610.579 675.516 612.87 675.035 617.368Z" fill="#75FFB5"/>
<path d="M643.28 716.001C654.752 730.384 652.461 751.469 637.193 761.733C594.824 790.215 547.411 810.569 497.373 821.641C436.471 835.117 373.293 834.484 312.673 819.793C252.052 805.101 195.595 776.739 147.619 736.876C108.202 704.124 75.369 664.321 50.7407 619.602C41.8653 603.487 49.4817 583.692 66.2658 576.157C83.0499 568.622 102.625 576.221 111.755 592.194C132.053 627.707 158.598 659.376 190.198 685.632C230.358 719.002 277.619 742.744 328.365 755.043C379.111 767.341 431.998 767.87 482.979 756.59C523.093 747.714 561.192 731.711 595.496 709.432C610.926 699.411 631.808 701.618 643.28 716.001Z" fill="#75FFB5"/>
<path d="M115.994 573.84L47.317 530.091C43.5016 527.661 38.4858 530.272 38.2887 534.791L34.7398 616.142C34.5427 620.662 39.3119 623.7 43.3245 621.611L115.551 584.009C119.563 581.92 119.81 576.27 115.994 573.84Z" fill="#75FFB5"/>
</svg>
