<svg width="500" height="500" viewBox="0 0 500 500" fill="none" xmlns="http://www.w3.org/2000/svg">
<path d="M500 250C500 388.071 388.071 500 250 500C111.929 500 0 388.071 0 250C0 111.929 111.929 0 250 0C388.071 0 500 111.929 500 250ZM44.2057 250C44.2057 363.657 136.343 455.794 250 455.794C363.657 455.794 455.794 363.657 455.794 250C455.794 136.343 363.657 44.2057 250 44.2057C136.343 44.2057 44.2057 136.343 44.2057 250Z" fill="black"/>
<path d="M238.816 363.56C226 363.56 212.709 361.899 198.944 358.576C185.179 355.253 173.193 350.269 162.988 343.624C158.241 340.539 155.037 336.979 153.376 332.944C151.715 328.909 151.24 325.112 151.952 321.552C152.901 317.755 154.681 314.551 157.292 311.94C160.14 309.329 163.581 307.787 167.616 307.312C171.888 306.837 176.516 307.905 181.5 310.516C191.231 315.737 200.605 319.535 209.624 321.908C218.643 324.044 227.899 325.112 237.392 325.112C247.835 325.112 256.616 323.688 263.736 320.84C270.856 317.992 276.196 313.72 279.756 308.024C283.553 302.328 285.452 295.445 285.452 287.376C285.452 275.509 281.417 266.728 273.348 261.032C265.516 255.099 254.005 252.132 238.816 252.132H216.032C209.387 252.132 204.284 250.471 200.724 247.148C197.401 243.825 195.74 239.197 195.74 233.264C195.74 227.331 197.401 222.703 200.724 219.38C204.284 216.057 209.387 214.396 216.032 214.396H234.544C243.563 214.396 251.276 212.972 257.684 210.124C264.092 207.039 269.076 202.767 272.636 197.308C276.196 191.849 277.976 185.204 277.976 177.372C277.976 166.455 274.297 158.148 266.94 152.452C259.82 146.756 249.377 143.908 235.612 143.908C226.831 143.908 218.524 144.976 210.692 147.112C203.097 149.011 194.672 152.689 185.416 158.148C181.144 160.759 176.991 161.827 172.956 161.352C169.159 160.877 165.955 159.335 163.344 156.724C160.733 154.113 158.953 151.028 158.004 147.468C157.055 143.671 157.292 139.873 158.716 136.076C160.14 132.041 163.107 128.6 167.616 125.752C177.821 119.107 189.095 114.123 201.436 110.8C213.777 107.24 226.475 105.46 239.528 105.46C256.853 105.46 271.687 108.189 284.028 113.648C296.369 118.869 305.744 126.464 312.152 136.432C318.797 146.163 322.12 158.029 322.12 172.032C322.12 182 320.221 191.137 316.424 199.444C312.627 207.513 307.287 214.396 300.404 220.092C293.521 225.788 285.215 229.823 275.484 232.196V227.924C292.572 230.772 305.863 237.892 315.356 249.284C324.849 260.439 329.596 274.441 329.596 291.292C329.596 306.007 325.917 318.823 318.56 329.74C311.203 340.657 300.76 349.083 287.232 355.016C273.704 360.712 257.565 363.56 238.816 363.56Z" fill="black"/>
</svg>
