<svg width="500" height="500" viewBox="0 0 500 500" fill="none" xmlns="http://www.w3.org/2000/svg">
<path d="M500 250C500 388.071 388.071 500 250 500C111.929 500 0 388.071 0 250C0 111.929 111.929 0 250 0C388.071 0 500 111.929 500 250ZM44.2057 250C44.2057 363.657 136.343 455.794 250 455.794C363.657 455.794 455.794 363.657 455.794 250C455.794 136.343 363.657 44.2057 250 44.2057C136.343 44.2057 44.2057 136.343 44.2057 250Z" fill="black"/>
<path d="M184.348 360C176.753 360 171.176 358.339 167.616 355.016C164.293 351.456 162.632 346.353 162.632 339.708C162.632 335.673 163.7 331.757 165.836 327.96C167.972 324.163 171.057 320.128 175.092 315.856L246.648 239.672C257.565 228.28 265.397 217.956 270.144 208.7C274.891 199.207 277.264 189.713 277.264 180.22C277.264 168.353 273.467 159.335 265.872 153.164C258.515 146.993 247.716 143.908 233.476 143.908C225.407 143.908 217.337 145.095 209.268 147.468C201.199 149.604 193.011 153.401 184.704 158.86C180.432 161.708 176.397 162.895 172.6 162.42C169.04 161.945 165.836 160.403 162.988 157.792C160.377 155.181 158.597 151.977 157.648 148.18C156.699 144.383 156.817 140.585 158.004 136.788C159.428 132.753 162.276 129.312 166.548 126.464C176.753 119.581 188.145 114.36 200.724 110.8C213.54 107.24 226.356 105.46 239.172 105.46C257.209 105.46 272.399 108.189 284.74 113.648C297.081 119.107 306.456 127.057 312.864 137.5C319.272 147.943 322.476 160.64 322.476 175.592C322.476 185.56 320.815 195.291 317.492 204.784C314.407 214.277 309.541 223.889 302.896 233.62C296.488 243.351 288.063 253.675 277.62 264.592L210.692 334.368V322.264H315.356C321.764 322.264 326.629 323.807 329.952 326.892C333.275 329.977 334.936 334.605 334.936 340.776C334.936 346.947 333.275 351.693 329.952 355.016C326.629 358.339 321.764 360 315.356 360H184.348Z" fill="black"/>
</svg>
