<svg width="500" height="500" viewBox="0 0 500 500" fill="none" xmlns="http://www.w3.org/2000/svg">
<path d="M500 250C500 388.071 388.071 500 250 500C111.929 500 0 388.071 0 250C0 111.929 111.929 0 250 0C388.071 0 500 111.929 500 250ZM44.2057 250C44.2057 363.657 136.343 455.794 250 455.794C363.657 455.794 455.794 363.657 455.794 250C455.794 136.343 363.657 44.2057 250 44.2057C136.343 44.2057 44.2057 136.343 44.2057 250Z" fill="black"/>
<path d="M253.056 363.56C232.408 363.56 214.727 358.695 200.012 348.964C185.535 338.996 174.499 324.756 166.904 306.244C159.309 287.732 155.512 265.304 155.512 238.96C155.512 217.6 157.885 198.732 162.632 182.356C167.616 165.743 174.736 151.74 183.992 140.348C193.248 128.956 204.521 120.293 217.812 114.36C231.34 108.427 246.529 105.46 263.38 105.46C273.823 105.46 284.384 107.121 295.064 110.444C305.981 113.529 316.187 118.276 325.68 124.684C329.477 127.057 331.969 130.143 333.156 133.94C334.343 137.737 334.461 141.535 333.512 145.332C332.8 148.892 331.139 152.096 328.528 154.944C326.155 157.555 323.069 159.216 319.272 159.928C315.475 160.403 311.321 159.335 306.812 156.724C298.743 151.977 291.148 148.655 284.028 146.756C276.908 144.857 269.788 143.908 262.668 143.908C248.903 143.908 237.273 147.112 227.78 153.52C218.287 159.928 211.048 169.54 206.064 182.356C201.317 195.172 198.944 211.192 198.944 230.416V257.116H194.672C196.571 245.012 200.487 234.688 206.42 226.144C212.591 217.363 220.423 210.717 229.916 206.208C239.409 201.461 249.971 199.088 261.6 199.088C276.077 199.088 288.893 202.529 300.048 209.412C311.203 216.295 319.984 225.788 326.392 237.892C332.8 249.996 336.004 263.88 336.004 279.544C336.004 295.683 332.444 310.16 325.324 322.976C318.441 335.555 308.711 345.523 296.132 352.88C283.791 360 269.432 363.56 253.056 363.56ZM250.564 327.248C259.108 327.248 266.584 325.349 272.992 321.552C279.637 317.755 284.74 312.415 288.3 305.532C291.86 298.412 293.64 290.343 293.64 281.324C293.64 272.068 291.86 263.999 288.3 257.116C284.74 250.233 279.637 244.893 272.992 241.096C266.584 237.061 259.108 235.044 250.564 235.044C242.02 235.044 234.544 237.061 228.136 241.096C221.728 244.893 216.625 250.233 212.828 257.116C209.268 263.999 207.488 272.068 207.488 281.324C207.488 290.343 209.268 298.412 212.828 305.532C216.625 312.415 221.728 317.755 228.136 321.552C234.544 325.349 242.02 327.248 250.564 327.248Z" fill="black"/>
</svg>
