<svg width="500" height="500" viewBox="0 0 500 500" fill="none" xmlns="http://www.w3.org/2000/svg">
<path d="M500 250C500 388.071 388.071 500 250 500C111.929 500 0 388.071 0 250C0 111.929 111.929 0 250 0C388.071 0 500 111.929 500 250ZM44.2057 250C44.2057 363.657 136.343 455.794 250 455.794C363.657 455.794 455.794 363.657 455.794 250C455.794 136.343 363.657 44.2057 250 44.2057C136.343 44.2057 44.2057 136.343 44.2057 250Z" fill="#B2E4DB"/>
<path d="M284.028 362.848C276.908 362.848 271.331 360.949 267.296 357.152C263.261 353.117 261.244 347.421 261.244 340.064V312.296H173.312C165.955 312.296 160.021 310.753 155.512 307.668C151.24 304.583 149.104 299.717 149.104 293.072C149.104 289.275 150.053 285.121 151.952 280.612C154.088 276.103 157.767 270.169 162.988 262.812L260.532 121.48C263.855 116.496 267.533 112.699 271.568 110.088C275.603 107.477 280.231 106.172 285.452 106.172C291.623 106.172 296.725 108.071 300.76 111.868C304.795 115.428 306.812 121.124 306.812 128.956V274.56H324.256C331.139 274.56 336.241 276.221 339.564 279.544C343.124 282.629 344.904 287.257 344.904 293.428C344.904 299.599 343.124 304.345 339.564 307.668C336.241 310.753 331.139 312.296 324.256 312.296H306.812V340.064C306.812 347.421 304.795 353.117 300.76 357.152C296.725 360.949 291.148 362.848 284.028 362.848ZM261.244 274.56V163.488H271.568L187.552 286.664V274.56H261.244Z" fill="#B2E4DB"/>
</svg>
