<svg width="500" height="500" viewBox="0 0 500 500" fill="none" xmlns="http://www.w3.org/2000/svg">
<path d="M500 250C500 388.071 388.071 500 250 500C111.929 500 0 388.071 0 250C0 111.929 111.929 0 250 0C388.071 0 500 111.929 500 250ZM44.2057 250C44.2057 363.657 136.343 455.794 250 455.794C363.657 455.794 455.794 363.657 455.794 250C455.794 136.343 363.657 44.2057 250 44.2057C136.343 44.2057 44.2057 136.343 44.2057 250Z" fill="black"/>
<path d="M245.936 363.56C233.357 363.56 220.541 361.899 207.488 358.576C194.435 355.253 182.449 350.151 171.532 343.268C167.023 340.42 163.937 337.097 162.276 333.3C160.852 329.265 160.496 325.349 161.208 321.552C162.157 317.517 163.937 314.195 166.548 311.584C169.396 308.736 172.719 307.075 176.516 306.6C180.551 306.125 184.941 307.193 189.688 309.804C198.469 314.788 207.369 318.585 216.388 321.196C225.407 323.807 235.019 325.112 245.224 325.112C255.192 325.112 263.736 323.332 270.856 319.772C277.976 316.212 283.435 311.228 287.232 304.82C291.029 298.412 292.928 290.936 292.928 282.392C292.928 269.101 288.893 258.421 280.824 250.352C272.755 242.045 261.719 237.892 247.716 237.892C240.121 237.892 232.764 239.197 225.644 241.808C218.524 244.181 211.523 248.453 204.64 254.624C202.504 256.523 199.775 258.421 196.452 260.32C193.129 261.981 189.569 262.812 185.772 262.812C179.839 262.812 175.329 261.269 172.244 258.184C169.159 255.099 167.616 250.827 167.616 245.368V128.956C167.616 122.548 169.277 117.683 172.6 114.36C176.16 110.8 181.144 109.02 187.552 109.02H304.676C311.084 109.02 315.949 110.681 319.272 114.004C322.832 117.089 324.612 121.717 324.612 127.888C324.612 133.821 322.832 138.449 319.272 141.772C315.949 145.095 311.084 146.756 304.676 146.756H212.116V226.5H200.368C206.539 218.193 214.727 211.785 224.932 207.276C235.137 202.767 246.292 200.512 258.396 200.512C274.297 200.512 288.063 203.953 299.692 210.836C311.559 217.481 320.696 226.856 327.104 238.96C333.749 250.827 337.072 264.711 337.072 280.612C337.072 296.988 333.393 311.465 326.036 324.044C318.679 336.385 308.117 346.116 294.352 353.236C280.824 360.119 264.685 363.56 245.936 363.56Z" fill="black"/>
</svg>
