<svg width="714" height="1062" viewBox="0 0 714 1062" fill="none" xmlns="http://www.w3.org/2000/svg">
<path d="M180.663 794.919C-255.851 815.869 186.154 260.614 622.974 0.599609C793.514 246.738 753.064 726.34 228.105 790.77C225.179 791.129 222.284 791.467 219.42 791.784C270.022 724.053 399.638 476.577 414.902 435.058C416.157 431.644 419.372 423.448 423.862 411.999C447.482 351.771 506.412 201.506 501.256 183.565C500.721 184.371 493.928 196.664 483.391 215.73C452.662 271.334 390.094 384.549 358.059 438.483C343.953 462.231 322.586 507.219 296.256 562.658C263.824 630.945 223.861 715.087 180.663 794.919Z" fill="#B2FF97"/>
<path d="M101.442 947.728C187.353 857.012 211.993 809.521 218.5 792L262.5 785C250.656 807.081 221.357 863.58 140.634 957.305C39.7292 1074.46 28.6335 1063.19 9.35359 1060.2C-9.92631 1057.21 -5.94597 1061.12 101.442 947.728Z" fill="#B2FF97"/>
</svg>
