<svg width="691" height="230" viewBox="0 0 691 230" fill="none" xmlns="http://www.w3.org/2000/svg">
<path d="M67.8319 114.496C106.762 101.081 48.687 67.9321 1.37912 60.438C-4.94631 87.9343 15.3469 128.49 63.5354 115.79C63.804 115.719 64.0692 115.648 64.3308 115.576C57.5368 111.416 37.5496 94.288 34.7635 91.188C34.5344 90.933 33.9669 90.3281 33.174 89.4831C29.0031 85.0378 18.5972 73.9471 18.4217 72.197C18.4967 72.2488 19.5206 73.0872 21.1087 74.3876C25.74 78.1799 35.17 85.9014 39.8574 89.502C41.9213 91.0874 45.3626 94.2778 49.6033 98.2094C54.8268 103.052 61.263 109.019 67.8319 114.496Z" fill="#A9FBD7"/>
<path d="M80.1022 125.101C69.4155 120.163 65.6004 116.868 64.4189 115.562L60.324 116.487C62.1318 118.005 66.6693 121.926 77.0073 127.308C89.9297 134.035 90.507 132.661 92.0896 131.726C93.6723 130.791 93.4606 131.272 80.1022 125.101Z" fill="#A9FBD7"/>
<path d="M148.604 157.283C145.832 162.421 142.47 166.36 138.601 168.826C134.606 171.314 129.957 173.003 124.403 173.935C119.732 174.719 115.439 174.661 111.503 173.634C107.441 172.629 103.903 170.887 100.913 168.533C97.9218 166.18 95.3511 163.237 93.3268 159.683C91.3025 156.129 89.9933 152.196 89.2728 147.904C88.5099 143.359 88.5681 139.066 89.4472 135.025C90.3263 130.984 91.7951 127.363 94.106 124.119C96.2908 120.897 99.0864 118.221 102.619 116.071C106.026 113.942 109.938 112.506 114.356 111.764C118.396 111.086 122.31 111.208 126.077 112.003C129.719 112.82 132.961 114.352 135.931 116.579C138.901 118.806 141.345 121.771 143.369 125.324C145.267 128.9 146.766 133.191 147.572 137.987L148.101 141.143L100.385 149.153C100.935 151.657 101.99 154.075 103.381 156.178C104.773 158.281 106.5 160.067 108.564 161.538C110.502 163.03 112.733 163.953 115.175 164.582C117.617 165.21 120.1 165.312 122.877 164.846C127.169 164.126 130.577 162.775 133.352 160.752C136.001 158.749 138.292 156.158 140.182 152.726L148.604 157.283ZM136.099 134.592C134.999 129.585 132.68 125.821 129.142 123.3C125.477 120.8 120.931 120.006 115.503 120.917C109.949 121.849 105.785 124.106 103.011 127.686C100.112 131.288 98.77 135.666 98.9865 140.822L136.099 134.592Z" fill="#A9FBD7"/>
<path d="M202.381 113.731C199.812 111.567 197.243 110.181 194.654 109.447C191.938 108.735 189.181 108.549 186.278 109.036C182.996 109.587 180.198 110.706 177.864 112.266C175.53 113.826 173.639 115.701 172.337 117.996C171.035 120.291 170.175 122.901 169.863 125.679C169.424 128.479 169.511 131.319 170.02 134.349C170.529 137.379 171.395 140.218 172.85 142.7C174.304 145.181 175.948 147.241 178.054 148.965C180.161 150.688 182.456 151.99 185.171 152.702C187.761 153.435 190.622 153.474 193.652 152.966C200.09 151.885 204.737 148.639 207.445 143.122L215.932 148.836C213.579 152.606 210.574 155.576 207.041 157.727C203.382 159.899 199.47 161.334 195.178 162.054C190.633 162.817 186.34 162.759 182.299 161.88C178.258 161.001 174.616 159.406 171.498 157.074C168.381 154.742 165.811 151.799 163.66 148.266C161.51 144.733 160.179 140.673 159.416 136.129C158.675 131.711 158.607 127.439 159.486 123.398C160.365 119.357 161.834 115.735 164.145 112.492C166.329 109.27 169.125 106.594 172.658 104.444C176.19 102.293 180.208 100.71 184.752 99.9474C189.044 99.2269 193.337 99.2851 197.505 100.143C201.672 101.001 205.483 102.827 209.042 105.474L202.381 113.731Z" fill="#A9FBD7"/>
<path d="M220.314 125.906C219.552 121.362 219.588 116.943 220.594 112.88C221.473 108.839 223.215 105.302 225.526 102.058C227.837 98.8151 230.759 96.1182 234.418 93.9465C237.951 91.796 242.116 90.3181 246.66 89.5553C251.204 88.7924 255.497 88.8506 259.665 89.7085C263.706 90.5876 267.475 92.1614 270.718 94.4724C273.961 96.7833 276.637 99.579 278.914 103.09C281.064 106.623 282.668 110.767 283.431 115.311C284.215 119.982 284.031 124.296 283.152 128.337C282.146 132.4 280.551 136.042 278.241 139.285C275.93 142.529 272.86 145.121 269.328 147.271C265.669 149.443 261.63 150.899 257.086 151.662C252.541 152.425 248.122 152.388 244.081 151.509C239.913 150.651 236.292 149.182 233.049 146.871C229.805 144.561 226.982 141.66 224.832 138.127C222.555 134.616 221.098 130.577 220.314 125.906ZM230.918 124.126C231.448 127.282 232.314 130.122 233.769 132.603C235.224 135.085 236.994 137.124 239.226 138.826C241.332 140.549 243.859 141.682 246.574 142.395C249.29 143.107 252.278 143.124 255.56 142.574C258.716 142.044 261.534 141.051 263.868 139.492C266.202 137.932 268.22 136.035 269.775 133.698C271.203 131.381 272.21 128.876 272.775 126.056C273.34 123.235 273.357 120.247 272.828 117.091C272.319 114.062 271.327 111.243 269.872 108.762C268.417 106.28 266.647 104.241 264.541 102.518C262.308 100.816 259.782 99.6828 257.066 98.9705C254.351 98.2582 251.342 98.1144 248.186 98.6441C244.904 99.1951 242.106 100.314 239.772 101.874C237.438 103.433 235.42 105.33 233.992 107.646C232.438 109.984 231.431 112.489 230.866 115.309C230.301 118.13 230.409 121.097 230.918 124.126Z" fill="#A9FBD7"/>
<path d="M290.397 52.6211L301.001 50.8411L314.351 130.368L355.25 123.503L356.903 133.349L305.4 141.995L290.397 52.6211Z" fill="#A9FBD7"/>
<path d="M417.714 112.109C414.942 117.247 411.58 121.186 407.711 123.652C403.716 126.14 399.067 127.829 393.513 128.761C388.842 129.545 384.549 129.487 380.613 128.46C376.551 127.455 373.013 125.713 370.022 123.359C367.032 121.006 364.461 118.063 362.437 114.509C360.412 110.955 359.103 107.022 358.383 102.73C357.62 98.1852 357.678 93.8923 358.557 89.851C359.436 85.8097 360.905 82.1886 363.216 78.9453C365.401 75.7232 368.196 73.0474 371.729 70.8969C375.135 68.7676 379.048 67.3321 383.466 66.5905C387.505 65.9124 391.42 66.0341 395.187 66.8293C398.829 67.6457 402.071 69.1781 405.041 71.4052C408.01 73.6323 410.455 76.5966 412.479 80.1505C414.377 83.7256 415.876 88.0166 416.681 92.8135L417.211 95.9694L369.495 103.979C370.045 106.483 371.1 108.901 372.491 111.004C373.882 113.107 375.61 114.893 377.674 116.364C379.612 117.856 381.843 118.779 384.285 119.408C386.727 120.036 389.21 120.138 391.987 119.672C396.279 118.952 399.686 117.601 402.462 115.578C405.111 113.575 407.402 110.985 409.291 107.552L417.714 112.109ZM405.209 89.4179C404.109 84.4109 401.79 80.6469 398.252 78.1259C394.587 75.626 390.041 74.8317 384.613 75.7429C379.059 76.6752 374.895 78.9317 372.121 82.5122C369.221 86.114 367.88 90.4925 368.096 95.6478L405.209 89.4179Z" fill="#A9FBD7"/>
<path d="M463.781 115.408L452.925 117.23L418.897 62.2003L430.384 60.272L456.591 103.506L456.844 103.464L466.613 54.1904L477.217 52.4105L463.781 115.408Z" fill="#A9FBD7"/>
<path d="M548.756 90.1116C545.984 95.2494 542.622 99.1883 538.753 101.655C534.757 104.143 530.109 105.831 524.554 106.764C519.884 107.548 515.591 107.49 511.655 106.463C507.592 105.458 504.055 103.715 501.064 101.362C498.073 99.0088 495.502 96.0657 493.478 92.5118C491.454 88.9579 490.145 85.0244 489.424 80.7324C488.661 76.188 488.719 71.8951 489.599 67.8538C490.478 63.8125 491.946 60.1914 494.257 56.9481C496.442 53.7259 499.238 51.0502 502.77 48.8997C506.177 46.7704 510.089 45.3349 514.508 44.5932C518.547 43.9152 522.461 44.0369 526.229 44.8321C529.87 45.6485 533.113 47.1809 536.082 49.408C539.052 51.6351 541.496 54.5993 543.521 58.1533C545.419 61.7284 546.918 66.0194 547.723 70.8163L548.253 73.9722L500.536 81.982C501.086 84.4855 502.141 86.9043 503.533 89.0069C504.924 91.1096 506.652 92.8963 508.716 94.3669C510.653 95.8587 512.885 96.782 515.327 97.4104C517.768 98.0389 520.252 98.1412 523.029 97.675C527.321 96.9546 530.728 95.6038 533.503 93.5805C536.152 91.5783 538.443 88.9873 540.333 85.5551L548.756 90.1116ZM536.251 67.4207C535.15 62.4137 532.831 58.6497 529.293 56.1287C525.629 53.6288 521.083 52.8345 515.654 53.7456C510.1 54.678 505.936 56.9345 503.163 60.515C500.263 64.1168 498.921 68.4953 499.138 73.6506L536.251 67.4207Z" fill="#A9FBD7"/>
<path d="M552.798 2.34326L562.645 0.69043L578.664 96.1232L568.818 97.776L552.798 2.34326Z" fill="#A9FBD7"/>
<path d="M683.963 94.6364C691.335 97.1336 693.154 106.725 687.207 111.747L625.729 163.673C619.881 168.613 610.878 165.418 609.452 157.896L594.711 80.1526C593.285 72.6312 600.494 66.3623 607.744 68.8184L683.963 94.6364Z" fill="#A9FBD7"/>
<path d="M649.374 110.692C650.917 118.831 645.57 126.68 637.431 128.223L105.751 229.031C97.6122 230.575 89.763 225.227 88.2198 217.088L87.8305 215.035C86.2873 206.896 91.6344 199.047 99.7737 197.503L631.453 96.6954C639.592 95.1522 647.442 100.499 648.985 108.639L649.374 110.692Z" fill="#A9FBD7"/>
</svg>
