<svg width="3373" height="1400" viewBox="0 0 3373 1400" fill="none" xmlns="http://www.w3.org/2000/svg">
<path d="M100.396 78.7504L12.8941 78.75L13.1971 4.37342L100.396 78.7504Z" fill="#B0C6CE"/>
<path d="M3269.75 1017.55L3351.25 1017.55L3351.25 1089.37L3269.75 1017.55Z" fill="#B2E4DB"/>
<path d="M12.8941 78.75H2357.89L3351.25 1089.38H1006.02L12.8941 78.75Z" fill="#B2E4DB"/>
<path d="M12.8941 78.75L1014.94 109.375L1006.02 1089.38L12.8941 78.75Z" fill="#B0C6CE"/>
<path d="M12.8941 4.375L2349.14 0L3346.64 1019.38H1007.53L12.8941 4.375Z" fill="white"/>
<path fill-rule="evenodd" clip-rule="evenodd" d="M988.75 980L1035.13 1020.25H3360L3313.89 980H988.75Z" fill="black"/>
<path fill-rule="evenodd" clip-rule="evenodd" d="M651.646 657.997L698.114 698.245H3027.5L2981.3 657.997H651.646Z" fill="black"/>
<path fill-rule="evenodd" clip-rule="evenodd" d="M336.644 337.749L383.022 377.997H2707.89L2661.79 337.749H336.644Z" fill="black"/>
<path fill-rule="evenodd" clip-rule="evenodd" d="M21.6441 0L68.0223 40.2483H2392.89L2346.79 0H21.6441Z" fill="black"/>
<path d="M56.6441 2.1875H8.5191L1006.02 1019.38H1054.14L56.6441 2.1875Z" fill="black"/>
<path d="M516.22 0H467.894L1475.28 1015H1517.89L516.22 0Z" fill="black"/>
<path d="M975.394 2.1875H927.269L1929.14 1019.38H1972.89L975.394 2.1875Z" fill="black"/>
<path d="M1434.77 2.1875H1386.64L2388.75 1019.38H2432.5L1434.77 2.1875Z" fill="black"/>
<path d="M1894.37 0H1846.25L2849.44 1019.38H2891.87L1894.37 0Z" fill="black"/>
<path d="M2353.52 2.1875H2305.39L3307.5 1019.38H3351.25L2353.52 2.1875Z" fill="black"/>
<rect x="2034.14" y="1085" width="183.75" height="236.25" fill="#B2E4DB"/>
<rect x="1692.89" y="1321.25" width="1023.75" height="78.75" fill="#B2E4DB"/>
<rect x="1727.89" y="1085" width="306.25" height="236.25" fill="#B0C6CE"/>
<rect x="1386.64" y="1321.25" width="306.25" height="78.75" fill="#B0C6CE"/>
</svg>
