<svg width="482" height="1477" viewBox="0 0 482 1477" fill="none" xmlns="http://www.w3.org/2000/svg">
<ellipse cx="194.236" cy="1426.42" rx="194.236" ry="50.5822" fill="#AAAAAA"/>
<path d="M12.1398 606.986H372.286V1415.89C372.286 1419.83 369.969 1423.41 366.37 1425.02L351.951 1431.47C314.526 1448.21 274.516 1458.44 233.647 1461.71L221.181 1462.7C203.243 1464.14 185.223 1464.23 167.272 1462.97L148.13 1461.62C102.46 1458.42 57.9199 1445.95 17.2205 1424.99V1424.99C14.1005 1423.38 12.1398 1420.17 12.1398 1416.66V606.986Z" fill="#BCFFF3"/>
<path d="M267.075 490.439C267.075 506.527 234.464 500.776 194.236 500.776C154.009 500.776 121.398 506.527 121.398 490.439C121.398 474.351 154.009 461.31 194.236 461.31C234.464 461.31 267.075 474.351 267.075 490.439Z" fill="#AAAAAA"/>
<path d="M311.587 470.207C311.587 486.295 259.047 480.543 194.236 480.543C129.425 480.543 76.8851 486.295 76.8851 470.207C76.8851 454.119 129.425 441.077 194.236 441.077C259.047 441.077 311.587 454.119 311.587 470.207Z" fill="#AAAAAA"/>
<path d="M84.9783 606.986H303.494V797.175C303.494 857.516 254.578 906.433 194.236 906.433V906.433C133.895 906.433 84.9783 857.516 84.9783 797.175V756.71V606.986Z" fill="black"/>
<path d="M335.867 571.845C335.867 621.717 271.551 603.888 192.213 603.888C112.875 603.888 48.559 621.717 48.559 571.845C48.559 521.973 112.875 481.543 192.213 481.543C271.551 481.543 335.867 521.973 335.867 571.845Z" fill="#AAAAAA"/>
<ellipse cx="194.236" cy="596.87" rx="194.236" ry="26.3027" fill="#AAAAAA"/>
<path d="M460.423 0L481.976 19.5174L199.603 331.343L178.05 311.825L460.423 0Z" fill="white"/>
<path d="M178.051 311.586H210.423V441.077H178.051V311.586Z" fill="white"/>
<ellipse cx="194.236" cy="443.1" rx="28.3261" ry="18.2096" fill="black"/>
</svg>
