<svg width="1391" height="3226" viewBox="0 0 1391 3226" fill="none" xmlns="http://www.w3.org/2000/svg">
<ellipse cx="695.5" cy="3055" rx="695.5" ry="171" fill="#AAAAAA"/>
<ellipse cx="697.5" cy="2991.65" rx="653.5" ry="134.351" fill="#BCFFF3"/>
<rect x="44" y="1485.5" width="1307" height="1506.15" fill="#BCFFF3"/>
<path d="M948.11 1124.75C948.11 1179.22 837.714 1159.75 701.534 1159.75C565.355 1159.75 454.959 1179.22 454.959 1124.75C454.959 1070.29 565.355 1026.14 701.534 1026.14C837.714 1026.14 948.11 1070.29 948.11 1124.75Z" fill="#AAAAAA"/>
<path d="M1098.79 1056.26C1098.79 1110.72 920.935 1091.25 701.535 1091.25C482.134 1091.25 304.274 1110.72 304.274 1056.26C304.274 1001.8 482.134 957.651 701.535 957.651C920.935 957.651 1098.79 1001.8 1098.79 1056.26Z" fill="#AAAAAA"/>
<path d="M332 1519.5H1071V1829.5C1071 2028.32 909.823 2189.5 711 2189.5H667C481.985 2189.5 332 2039.52 332 1854.5V1519.5Z" fill="black"/>
<path d="M1180.99 1400.33C1180.99 1569.16 963.262 1508.8 694.685 1508.8C426.108 1508.8 208.384 1569.16 208.384 1400.33C208.384 1231.5 426.108 1094.64 694.685 1094.64C963.262 1094.64 1180.99 1231.5 1180.99 1400.33Z" fill="#AAAAAA"/>
<ellipse cx="701.534" cy="1485.05" rx="657.534" ry="89.0411" fill="#AAAAAA"/>
<path d="M1093 0L1166.5 73L721.065 591.674L648.102 525.603L1093 0Z" fill="white"/>
<path d="M646.742 519.294H756.331V957.651H646.742V519.294Z" fill="white"/>
<ellipse cx="701.534" cy="964.5" rx="95.8904" ry="61.6438" fill="black"/>
</svg>
