<svg width="1324" height="2744" viewBox="0 0 1324 2744" fill="none" xmlns="http://www.w3.org/2000/svg">
<path d="M1051.9 0L1125.4 73L679.963 591.674L607 525.603L1051.9 0Z" fill="white"/>
<path d="M607 525.603H716.589V963.96H607V525.603Z" fill="white"/>
<ellipse cx="657.534" cy="2572.23" rx="657.534" ry="171.233" fill="#AAAAAA"/>
<path d="M49 1238H1268V2595.52C1268 2599.89 1265.15 2603.76 1260.97 2605.07L1179.94 2630.29C1162.5 2635.72 1144.67 2639.81 1126.61 2642.54L1007.76 2660.45L665.348 2674L274.994 2660.45L124.893 2638.45L54.7563 2605.58C51.2436 2603.93 49 2600.4 49 2596.52V1238Z" fill="#BCFFF3"/>
<path d="M912.11 842.755C912.11 897.216 801.714 877.746 665.534 877.746C529.355 877.746 418.959 897.216 418.959 842.755C418.959 788.294 529.355 744.144 665.534 744.144C801.714 744.144 912.11 788.294 912.11 842.755Z" fill="#AAAAAA"/>
<path d="M1062.79 774.262C1062.79 828.723 884.935 809.253 665.534 809.253C446.133 809.253 268.274 828.723 268.274 774.262C268.274 719.8 446.133 675.651 665.534 675.651C884.935 675.651 1062.79 719.8 1062.79 774.262Z" fill="#AAAAAA"/>
<path d="M296 1237.5H1035V1547.5C1035 1746.32 873.823 1907.5 675 1907.5H631C445.985 1907.5 296 1757.52 296 1572.5V1572.5V1237.5Z" fill="black"/>
<path d="M1144.99 1118.33C1144.99 1287.16 927.262 1226.8 658.685 1226.8C390.108 1226.8 172.384 1287.16 172.384 1118.33C172.384 949.501 390.108 812.637 658.685 812.637C927.262 812.637 1144.99 949.501 1144.99 1118.33Z" fill="#AAAAAA"/>
<ellipse cx="665.534" cy="1203.05" rx="657.534" ry="89.0411" fill="#AAAAAA"/>
<ellipse cx="665.534" cy="682.5" rx="95.8904" ry="61.6438" fill="black"/>
</svg>
