<svg width="720" height="1179" viewBox="0 0 720 1179" fill="none" xmlns="http://www.w3.org/2000/svg">
<rect width="693.975" height="763.344" transform="matrix(0.866025 -0.5 2.20305e-08 1 57.1997 414.266)" fill="#B2E4DB"/>
<rect width="38.1051" height="763.344" transform="matrix(0.866025 0.5 -2.20305e-08 1 626 48.8564)" fill="#444149"/>
<rect width="51.9615" height="283.991" transform="matrix(0.866025 0.5 -0.866025 0.5 616.143 435.61)" fill="#444149"/>
<rect width="40.8007" height="645.647" transform="matrix(0.866025 0.5 -0.866025 0.5 626.012 428.362)" fill="#444149"/>
<rect width="51.9615" height="763.344" transform="matrix(0.866025 -0.5 2.20305e-08 1 658.2 67.5903)" fill="#28262C"/>
<rect width="66.7421" height="763.605" transform="matrix(0.866025 0.5 -2.20305e-08 1 0.199707 381.688)" fill="#28262C"/>
<rect width="37.1465" height="320.072" transform="matrix(0.866025 0.5 -0.866025 0.5 625.673 752.222)" fill="#555555"/>
<rect width="51.9615" height="763.344" transform="matrix(0.866025 -0.5 2.20305e-08 1 382.2 213.59)" fill="#28262C"/>
<rect width="49.6521" height="763.344" transform="matrix(0.866025 0.5 -2.20305e-08 1 350.2 188.61)" fill="#444149"/>
<rect width="715.684" height="61.1651" transform="matrix(0.866025 -0.5 2.20305e-08 1 80.1997 1103.91)" fill="#28262C"/>
<rect width="695.13" height="57.2237" transform="matrix(0.866025 -0.5 2.20305e-08 1 57.1997 414.447)" fill="#28262C"/>
<rect width="64.8939" height="745.528" transform="matrix(0.866025 0.5 -0.866025 0.5 646.646 9.79028)" fill="#28262C"/>
<rect width="669.726" height="61.1651" transform="matrix(0.866025 -0.5 2.20305e-08 1 80.1997 783.473)" fill="#28262C"/>
<path d="M351.5 908L394.458 923.097L100.506 1092.81L67.4612 1073.73L351.5 908Z" fill="#555555"/>
<rect width="51.9615" height="763.344" transform="matrix(0.866025 -0.5 2.20305e-08 1 57.1997 414.447)" fill="#28262C"/>
</svg>
